<svg width="178" height="178" viewBox="0 0 178 178" fill="none" xmlns="http://www.w3.org/2000/svg">
<g clip-path="url(#clip0_1329_29141)">
<path d="M178 0H0V178H178V0Z" fill="white"/>
<path d="M59.4951 10.7879H53.9394V16.3436H59.4951V10.7879Z" fill="black"/>
<path d="M91.8588 10.7879H86.303V16.3436H91.8588V10.7879Z" fill="black"/>
<path d="M102.647 10.7879H97.0909V16.3436H102.647V10.7879Z" fill="black"/>
<path d="M108.041 10.7879H102.485V16.3436H108.041V10.7879Z" fill="black"/>
<path d="M113.435 10.7879H107.879V16.3436H113.435V10.7879Z" fill="black"/>
<path d="M124.222 10.7879H118.667V16.3436H124.222V10.7879Z" fill="black"/>
<path d="M59.4951 16.1818H53.9394V21.7376H59.4951V16.1818Z" fill="black"/>
<path d="M64.8891 16.1818H59.3333V21.7376H64.8891V16.1818Z" fill="black"/>
<path d="M70.2831 16.1818H64.7273V21.7376H70.2831V16.1818Z" fill="black"/>
<path d="M91.8588 16.1818H86.303V21.7376H91.8588V16.1818Z" fill="black"/>
<path d="M102.647 16.1818H97.0909V21.7376H102.647V16.1818Z" fill="black"/>
<path d="M108.041 16.1818H102.485V21.7376H108.041V16.1818Z" fill="black"/>
<path d="M118.829 16.1818H113.273V21.7376H118.829V16.1818Z" fill="black"/>
<path d="M59.4951 21.5758H53.9394V27.1315H59.4951V21.5758Z" fill="black"/>
<path d="M75.677 21.5758H70.1212V27.1315H75.677V21.5758Z" fill="black"/>
<path d="M102.647 21.5758H97.0909V27.1315H102.647V21.5758Z" fill="black"/>
<path d="M113.435 21.5758H107.879V27.1315H113.435V21.5758Z" fill="black"/>
<path d="M118.829 21.5758H113.273V27.1315H118.829V21.5758Z" fill="black"/>
<path d="M124.222 21.5758H118.667V27.1315H124.222V21.5758Z" fill="black"/>
<path d="M70.2831 26.9697H64.7273V32.5255H70.2831V26.9697Z" fill="black"/>
<path d="M75.677 26.9697H70.1212V32.5255H75.677V26.9697Z" fill="black"/>
<path d="M86.4648 26.9697H80.9091V32.5255H86.4648V26.9697Z" fill="black"/>
<path d="M91.8588 26.9697H86.303V32.5255H91.8588V26.9697Z" fill="black"/>
<path d="M97.2527 26.9697H91.697V32.5255H97.2527V26.9697Z" fill="black"/>
<path d="M102.647 26.9697H97.0909V32.5255H102.647V26.9697Z" fill="black"/>
<path d="M108.041 26.9697H102.485V32.5255H108.041V26.9697Z" fill="black"/>
<path d="M118.829 26.9697H113.273V32.5255H118.829V26.9697Z" fill="black"/>
<path d="M70.2831 32.3636H64.7273V37.9194H70.2831V32.3636Z" fill="black"/>
<path d="M75.677 32.3636H70.1212V37.9194H75.677V32.3636Z" fill="black"/>
<path d="M81.0709 32.3636H75.5152V37.9194H81.0709V32.3636Z" fill="black"/>
<path d="M102.647 32.3636H97.0909V37.9194H102.647V32.3636Z" fill="black"/>
<path d="M113.435 32.3636H107.879V37.9194H113.435V32.3636Z" fill="black"/>
<path d="M118.829 32.3636H113.273V37.9194H118.829V32.3636Z" fill="black"/>
<path d="M59.4951 37.7576H53.9394V43.3133H59.4951V37.7576Z" fill="black"/>
<path d="M64.8891 37.7576H59.3333V43.3133H64.8891V37.7576Z" fill="black"/>
<path d="M81.0709 37.7576H75.5152V43.3133H81.0709V37.7576Z" fill="black"/>
<path d="M91.8588 37.7576H86.303V43.3133H91.8588V37.7576Z" fill="black"/>
<path d="M97.2527 37.7576H91.697V43.3133H97.2527V37.7576Z" fill="black"/>
<path d="M102.647 37.7576H97.0909V43.3133H102.647V37.7576Z" fill="black"/>
<path d="M113.435 37.7576H107.879V43.3133H113.435V37.7576Z" fill="black"/>
<path d="M59.4951 43.1515H53.9394V48.7073H59.4951V43.1515Z" fill="black"/>
<path d="M70.2831 43.1515H64.7273V48.7073H70.2831V43.1515Z" fill="black"/>
<path d="M81.0709 43.1515H75.5152V48.7073H81.0709V43.1515Z" fill="black"/>
<path d="M91.8588 43.1515H86.303V48.7073H91.8588V43.1515Z" fill="black"/>
<path d="M102.647 43.1515H97.0909V48.7073H102.647V43.1515Z" fill="black"/>
<path d="M113.435 43.1515H107.879V48.7073H113.435V43.1515Z" fill="black"/>
<path d="M124.222 43.1515H118.667V48.7073H124.222V43.1515Z" fill="black"/>
<path d="M59.4951 48.5455H53.9394V54.1012H59.4951V48.5455Z" fill="black"/>
<path d="M64.8891 48.5455H59.3333V54.1012H64.8891V48.5455Z" fill="black"/>
<path d="M70.2831 48.5455H64.7273V54.1012H70.2831V48.5455Z" fill="black"/>
<path d="M75.677 48.5455H70.1212V54.1012H75.677V48.5455Z" fill="black"/>
<path d="M81.0709 48.5455H75.5152V54.1012H81.0709V48.5455Z" fill="black"/>
<path d="M86.4648 48.5455H80.9091V54.1012H86.4648V48.5455Z" fill="black"/>
<path d="M91.8588 48.5455H86.303V54.1012H91.8588V48.5455Z" fill="black"/>
<path d="M97.2527 48.5455H91.697V54.1012H97.2527V48.5455Z" fill="black"/>
<path d="M102.647 48.5455H97.0909V54.1012H102.647V48.5455Z" fill="black"/>
<path d="M118.829 48.5455H113.273V54.1012H118.829V48.5455Z" fill="black"/>
<path d="M27.1315 53.9394H21.5758V59.4951H27.1315V53.9394Z" fill="black"/>
<path d="M32.5255 53.9394H26.9697V59.4951H32.5255V53.9394Z" fill="black"/>
<path d="M37.9194 53.9394H32.3636V59.4951H37.9194V53.9394Z" fill="black"/>
<path d="M48.7073 53.9394H43.1515V59.4951H48.7073V53.9394Z" fill="black"/>
<path d="M59.4951 53.9394H53.9394V59.4951H59.4951V53.9394Z" fill="black"/>
<path d="M64.8891 53.9394H59.3333V59.4951H64.8891V53.9394Z" fill="black"/>
<path d="M70.2831 53.9394H64.7273V59.4951H70.2831V53.9394Z" fill="black"/>
<path d="M91.8588 53.9394H86.303V59.4951H91.8588V53.9394Z" fill="black"/>
<path d="M97.2527 53.9394H91.697V59.4951H97.2527V53.9394Z" fill="black"/>
<path d="M102.647 53.9394H97.0909V59.4951H102.647V53.9394Z" fill="black"/>
<path d="M113.435 53.9394H107.879V59.4951H113.435V53.9394Z" fill="black"/>
<path d="M129.616 53.9394H124.061V59.4951H129.616V53.9394Z" fill="black"/>
<path d="M135.01 53.9394H129.455V59.4951H135.01V53.9394Z" fill="black"/>
<path d="M140.404 53.9394H134.848V59.4951H140.404V53.9394Z" fill="black"/>
<path d="M156.586 53.9394H151.03V59.4951H156.586V53.9394Z" fill="black"/>
<path d="M161.98 53.9394H156.424V59.4951H161.98V53.9394Z" fill="black"/>
<path d="M167.374 53.9394H161.818V59.4951H167.374V53.9394Z" fill="black"/>
<path d="M21.7376 59.3333H16.1818V64.8891H21.7376V59.3333Z" fill="black"/>
<path d="M32.5255 59.3333H26.9697V64.8891H32.5255V59.3333Z" fill="black"/>
<path d="M54.1012 59.3333H48.5455V64.8891H54.1012V59.3333Z" fill="black"/>
<path d="M64.8891 59.3333H59.3333V64.8891H64.8891V59.3333Z" fill="black"/>
<path d="M70.2831 59.3333H64.7273V64.8891H70.2831V59.3333Z" fill="black"/>
<path d="M75.677 59.3333H70.1212V64.8891H75.677V59.3333Z" fill="black"/>
<path d="M97.2527 59.3333H91.697V64.8891H97.2527V59.3333Z" fill="black"/>
<path d="M102.647 59.3333H97.0909V64.8891H102.647V59.3333Z" fill="black"/>
<path d="M108.041 59.3333H102.485V64.8891H108.041V59.3333Z" fill="black"/>
<path d="M129.616 59.3333H124.061V64.8891H129.616V59.3333Z" fill="black"/>
<path d="M140.404 59.3333H134.848V64.8891H140.404V59.3333Z" fill="black"/>
<path d="M145.798 59.3333H140.242V64.8891H145.798V59.3333Z" fill="black"/>
<path d="M151.192 59.3333H145.636V64.8891H151.192V59.3333Z" fill="black"/>
<path d="M156.586 59.3333H151.03V64.8891H156.586V59.3333Z" fill="black"/>
<path d="M167.374 59.3333H161.818V64.8891H167.374V59.3333Z" fill="black"/>
<path d="M21.7376 64.7273H16.1818V70.283H21.7376V64.7273Z" fill="black"/>
<path d="M32.5255 64.7273H26.9697V70.283H32.5255V64.7273Z" fill="black"/>
<path d="M37.9194 64.7273H32.3636V70.283H37.9194V64.7273Z" fill="black"/>
<path d="M43.3133 64.7273H37.7576V70.283H43.3133V64.7273Z" fill="black"/>
<path d="M48.7073 64.7273H43.1515V70.283H48.7073V64.7273Z" fill="black"/>
<path d="M54.1012 64.7273H48.5455V70.283H54.1012V64.7273Z" fill="black"/>
<path d="M59.4951 64.7273H53.9394V70.283H59.4951V64.7273Z" fill="black"/>
<path d="M70.2831 64.7273H64.7273V70.283H70.2831V64.7273Z" fill="black"/>
<path d="M75.677 64.7273H70.1212V70.283H75.677V64.7273Z" fill="black"/>
<path d="M81.0709 64.7273H75.5152V70.283H81.0709V64.7273Z" fill="black"/>
<path d="M86.4648 64.7273H80.9091V70.283H86.4648V64.7273Z" fill="black"/>
<path d="M91.8588 64.7273H86.303V70.283H91.8588V64.7273Z" fill="black"/>
<path d="M129.616 64.7273H124.061V70.283H129.616V64.7273Z" fill="black"/>
<path d="M135.01 64.7273H129.455V70.283H135.01V64.7273Z" fill="black"/>
<path d="M145.798 64.7273H140.242V70.283H145.798V64.7273Z" fill="black"/>
<path d="M156.586 64.7273H151.03V70.283H156.586V64.7273Z" fill="black"/>
<path d="M32.5255 70.1212H26.9697V75.677H32.5255V70.1212Z" fill="black"/>
<path d="M54.1012 70.1212H48.5455V75.677H54.1012V70.1212Z" fill="black"/>
<path d="M59.4951 70.1212H53.9394V75.677H59.4951V70.1212Z" fill="black"/>
<path d="M64.8891 70.1212H59.3333V75.677H64.8891V70.1212Z" fill="black"/>
<path d="M70.2831 70.1212H64.7273V75.677H70.2831V70.1212Z" fill="black"/>
<path d="M75.677 70.1212H70.1212V75.677H75.677V70.1212Z" fill="black"/>
<path d="M97.2527 70.1212H91.697V75.677H97.2527V70.1212Z" fill="black"/>
<path d="M108.041 70.1212H102.485V75.677H108.041V70.1212Z" fill="black"/>
<path d="M124.222 70.1212H118.667V75.677H124.222V70.1212Z" fill="black"/>
<path d="M129.616 70.1212H124.061V75.677H129.616V70.1212Z" fill="black"/>
<path d="M135.01 70.1212H129.455V75.677H135.01V70.1212Z" fill="black"/>
<path d="M151.192 70.1212H145.636V75.677H151.192V70.1212Z" fill="black"/>
<path d="M161.98 70.1212H156.424V75.677H161.98V70.1212Z" fill="black"/>
<path d="M21.7376 75.5152H16.1818V81.0709H21.7376V75.5152Z" fill="black"/>
<path d="M27.1315 75.5152H21.5758V81.0709H27.1315V75.5152Z" fill="black"/>
<path d="M32.5255 75.5152H26.9697V81.0709H32.5255V75.5152Z" fill="black"/>
<path d="M37.9194 75.5152H32.3636V81.0709H37.9194V75.5152Z" fill="black"/>
<path d="M43.3133 75.5152H37.7576V81.0709H43.3133V75.5152Z" fill="black"/>
<path d="M48.7073 75.5152H43.1515V81.0709H48.7073V75.5152Z" fill="black"/>
<path d="M54.1012 75.5152H48.5455V81.0709H54.1012V75.5152Z" fill="black"/>
<path d="M59.4951 75.5152H53.9394V81.0709H59.4951V75.5152Z" fill="black"/>
<path d="M86.4648 75.5152H80.9091V81.0709H86.4648V75.5152Z" fill="black"/>
<path d="M91.8588 75.5152H86.303V81.0709H91.8588V75.5152Z" fill="black"/>
<path d="M102.647 75.5152H97.0909V81.0709H102.647V75.5152Z" fill="black"/>
<path d="M118.829 75.5152H113.273V81.0709H118.829V75.5152Z" fill="black"/>
<path d="M124.222 75.5152H118.667V81.0709H124.222V75.5152Z" fill="black"/>
<path d="M129.616 75.5152H124.061V81.0709H129.616V75.5152Z" fill="black"/>
<path d="M140.404 75.5152H134.848V81.0709H140.404V75.5152Z" fill="black"/>
<path d="M156.586 75.5152H151.03V81.0709H156.586V75.5152Z" fill="black"/>
<path d="M161.98 75.5152H156.424V81.0709H161.98V75.5152Z" fill="black"/>
<path d="M167.374 75.5152H161.818V81.0709H167.374V75.5152Z" fill="black"/>
<path d="M16.3436 80.9091H10.7879V86.4648H16.3436V80.9091Z" fill="black"/>
<path d="M27.1315 80.9091H21.5758V86.4648H27.1315V80.9091Z" fill="black"/>
<path d="M32.5255 80.9091H26.9697V86.4648H32.5255V80.9091Z" fill="black"/>
<path d="M43.3133 80.9091H37.7576V86.4648H43.3133V80.9091Z" fill="black"/>
<path d="M54.1012 80.9091H48.5455V86.4648H54.1012V80.9091Z" fill="black"/>
<path d="M64.8891 80.9091H59.3333V86.4648H64.8891V80.9091Z" fill="black"/>
<path d="M70.2831 80.9091H64.7273V86.4648H70.2831V80.9091Z" fill="black"/>
<path d="M81.0709 80.9091H75.5152V86.4648H81.0709V80.9091Z" fill="black"/>
<path d="M86.4648 80.9091H80.9091V86.4648H86.4648V80.9091Z" fill="black"/>
<path d="M97.2527 80.9091H91.697V86.4648H97.2527V80.9091Z" fill="black"/>
<path d="M108.041 80.9091H102.485V86.4648H108.041V80.9091Z" fill="black"/>
<path d="M113.435 80.9091H107.879V86.4648H113.435V80.9091Z" fill="black"/>
<path d="M118.829 80.9091H113.273V86.4648H118.829V80.9091Z" fill="black"/>
<path d="M124.222 80.9091H118.667V86.4648H124.222V80.9091Z" fill="black"/>
<path d="M129.616 80.9091H124.061V86.4648H129.616V80.9091Z" fill="black"/>
<path d="M135.01 80.9091H129.455V86.4648H135.01V80.9091Z" fill="black"/>
<path d="M145.798 80.9091H140.242V86.4648H145.798V80.9091Z" fill="black"/>
<path d="M151.192 80.9091H145.636V86.4648H151.192V80.9091Z" fill="black"/>
<path d="M161.98 80.9091H156.424V86.4648H161.98V80.9091Z" fill="black"/>
<path d="M167.374 80.9091H161.818V86.4648H167.374V80.9091Z" fill="black"/>
<path d="M21.7376 86.303H16.1818V91.8588H21.7376V86.303Z" fill="black"/>
<path d="M37.9194 86.303H32.3636V91.8588H37.9194V86.303Z" fill="black"/>
<path d="M43.3133 86.303H37.7576V91.8588H43.3133V86.303Z" fill="black"/>
<path d="M48.7073 86.303H43.1515V91.8588H48.7073V86.303Z" fill="black"/>
<path d="M59.4951 86.303H53.9394V91.8588H59.4951V86.303Z" fill="black"/>
<path d="M64.8891 86.303H59.3333V91.8588H64.8891V86.303Z" fill="black"/>
<path d="M81.0709 86.303H75.5152V91.8588H81.0709V86.303Z" fill="black"/>
<path d="M108.041 86.303H102.485V91.8588H108.041V86.303Z" fill="black"/>
<path d="M124.222 86.303H118.667V91.8588H124.222V86.303Z" fill="black"/>
<path d="M140.404 86.303H134.848V91.8588H140.404V86.303Z" fill="black"/>
<path d="M27.1315 91.697H21.5758V97.2527H27.1315V91.697Z" fill="black"/>
<path d="M37.9194 91.697H32.3636V97.2527H37.9194V91.697Z" fill="black"/>
<path d="M43.3133 91.697H37.7576V97.2527H43.3133V91.697Z" fill="black"/>
<path d="M54.1012 91.697H48.5455V97.2527H54.1012V91.697Z" fill="black"/>
<path d="M59.4951 91.697H53.9394V97.2527H59.4951V91.697Z" fill="black"/>
<path d="M64.8891 91.697H59.3333V97.2527H64.8891V91.697Z" fill="black"/>
<path d="M81.0709 91.697H75.5152V97.2527H81.0709V91.697Z" fill="black"/>
<path d="M86.4648 91.697H80.9091V97.2527H86.4648V91.697Z" fill="black"/>
<path d="M97.2527 91.697H91.697V97.2527H97.2527V91.697Z" fill="black"/>
<path d="M108.041 91.697H102.485V97.2527H108.041V91.697Z" fill="black"/>
<path d="M113.435 91.697H107.879V97.2527H113.435V91.697Z" fill="black"/>
<path d="M145.798 91.697H140.242V97.2527H145.798V91.697Z" fill="black"/>
<path d="M151.192 91.697H145.636V97.2527H151.192V91.697Z" fill="black"/>
<path d="M16.3436 97.0909H10.7879V102.647H16.3436V97.0909Z" fill="black"/>
<path d="M21.7376 97.0909H16.1818V102.647H21.7376V97.0909Z" fill="black"/>
<path d="M27.1315 97.0909H21.5758V102.647H27.1315V97.0909Z" fill="black"/>
<path d="M43.3133 97.0909H37.7576V102.647H43.3133V97.0909Z" fill="black"/>
<path d="M48.7073 97.0909H43.1515V102.647H48.7073V97.0909Z" fill="black"/>
<path d="M54.1012 97.0909H48.5455V102.647H54.1012V97.0909Z" fill="black"/>
<path d="M59.4951 97.0909H53.9394V102.647H59.4951V97.0909Z" fill="black"/>
<path d="M64.8891 97.0909H59.3333V102.647H64.8891V97.0909Z" fill="black"/>
<path d="M70.2831 97.0909H64.7273V102.647H70.2831V97.0909Z" fill="black"/>
<path d="M75.677 97.0909H70.1212V102.647H75.677V97.0909Z" fill="black"/>
<path d="M81.0709 97.0909H75.5152V102.647H81.0709V97.0909Z" fill="black"/>
<path d="M91.8588 97.0909H86.303V102.647H91.8588V97.0909Z" fill="black"/>
<path d="M108.041 97.0909H102.485V102.647H108.041V97.0909Z" fill="black"/>
<path d="M113.435 97.0909H107.879V102.647H113.435V97.0909Z" fill="black"/>
<path d="M140.404 97.0909H134.848V102.647H140.404V97.0909Z" fill="black"/>
<path d="M145.798 97.0909H140.242V102.647H145.798V97.0909Z" fill="black"/>
<path d="M151.192 97.0909H145.636V102.647H151.192V97.0909Z" fill="black"/>
<path d="M156.586 97.0909H151.03V102.647H156.586V97.0909Z" fill="black"/>
<path d="M161.98 97.0909H156.424V102.647H161.98V97.0909Z" fill="black"/>
<path d="M167.374 97.0909H161.818V102.647H167.374V97.0909Z" fill="black"/>
<path d="M16.3436 102.485H10.7879V108.041H16.3436V102.485Z" fill="black"/>
<path d="M21.7376 102.485H16.1818V108.041H21.7376V102.485Z" fill="black"/>
<path d="M27.1315 102.485H21.5758V108.041H27.1315V102.485Z" fill="black"/>
<path d="M37.9194 102.485H32.3636V108.041H37.9194V102.485Z" fill="black"/>
<path d="M43.3133 102.485H37.7576V108.041H43.3133V102.485Z" fill="black"/>
<path d="M54.1012 102.485H48.5455V108.041H54.1012V102.485Z" fill="black"/>
<path d="M59.4951 102.485H53.9394V108.041H59.4951V102.485Z" fill="black"/>
<path d="M70.2831 102.485H64.7273V108.041H70.2831V102.485Z" fill="black"/>
<path d="M97.2527 102.485H91.697V108.041H97.2527V102.485Z" fill="black"/>
<path d="M113.435 102.485H107.879V108.041H113.435V102.485Z" fill="black"/>
<path d="M118.829 102.485H113.273V108.041H118.829V102.485Z" fill="black"/>
<path d="M124.222 102.485H118.667V108.041H124.222V102.485Z" fill="black"/>
<path d="M129.616 102.485H124.061V108.041H129.616V102.485Z" fill="black"/>
<path d="M135.01 102.485H129.455V108.041H135.01V102.485Z" fill="black"/>
<path d="M140.404 102.485H134.848V108.041H140.404V102.485Z" fill="black"/>
<path d="M145.798 102.485H140.242V108.041H145.798V102.485Z" fill="black"/>
<path d="M156.586 102.485H151.03V108.041H156.586V102.485Z" fill="black"/>
<path d="M161.98 102.485H156.424V108.041H161.98V102.485Z" fill="black"/>
<path d="M167.374 102.485H161.818V108.041H167.374V102.485Z" fill="black"/>
<path d="M16.3436 107.879H10.7879V113.435H16.3436V107.879Z" fill="black"/>
<path d="M32.5255 107.879H26.9697V113.435H32.5255V107.879Z" fill="black"/>
<path d="M37.9194 107.879H32.3636V113.435H37.9194V107.879Z" fill="black"/>
<path d="M43.3133 107.879H37.7576V113.435H43.3133V107.879Z" fill="black"/>
<path d="M48.7073 107.879H43.1515V113.435H48.7073V107.879Z" fill="black"/>
<path d="M59.4951 107.879H53.9394V113.435H59.4951V107.879Z" fill="black"/>
<path d="M64.8891 107.879H59.3333V113.435H64.8891V107.879Z" fill="black"/>
<path d="M86.4648 107.879H80.9091V113.435H86.4648V107.879Z" fill="black"/>
<path d="M97.2527 107.879H91.697V113.435H97.2527V107.879Z" fill="black"/>
<path d="M113.435 107.879H107.879V113.435H113.435V107.879Z" fill="black"/>
<path d="M135.01 107.879H129.455V113.435H135.01V107.879Z" fill="black"/>
<path d="M151.192 107.879H145.636V113.435H151.192V107.879Z" fill="black"/>
<path d="M156.586 107.879H151.03V113.435H156.586V107.879Z" fill="black"/>
<path d="M16.3436 113.273H10.7879V118.828H16.3436V113.273Z" fill="black"/>
<path d="M32.5255 113.273H26.9697V118.828H32.5255V113.273Z" fill="black"/>
<path d="M37.9194 113.273H32.3636V118.828H37.9194V113.273Z" fill="black"/>
<path d="M70.2831 113.273H64.7273V118.828H70.2831V113.273Z" fill="black"/>
<path d="M86.4648 113.273H80.9091V118.828H86.4648V113.273Z" fill="black"/>
<path d="M91.8588 113.273H86.303V118.828H91.8588V113.273Z" fill="black"/>
<path d="M102.647 113.273H97.0909V118.828H102.647V113.273Z" fill="black"/>
<path d="M118.829 113.273H113.273V118.828H118.829V113.273Z" fill="black"/>
<path d="M124.222 113.273H118.667V118.828H124.222V113.273Z" fill="black"/>
<path d="M135.01 113.273H129.455V118.828H135.01V113.273Z" fill="black"/>
<path d="M140.404 113.273H134.848V118.828H140.404V113.273Z" fill="black"/>
<path d="M161.98 113.273H156.424V118.828H161.98V113.273Z" fill="black"/>
<path d="M167.374 113.273H161.818V118.828H167.374V113.273Z" fill="black"/>
<path d="M16.3436 118.667H10.7879V124.222H16.3436V118.667Z" fill="black"/>
<path d="M27.1315 118.667H21.5758V124.222H27.1315V118.667Z" fill="black"/>
<path d="M32.5255 118.667H26.9697V124.222H32.5255V118.667Z" fill="black"/>
<path d="M43.3133 118.667H37.7576V124.222H43.3133V118.667Z" fill="black"/>
<path d="M48.7073 118.667H43.1515V124.222H48.7073V118.667Z" fill="black"/>
<path d="M59.4951 118.667H53.9394V124.222H59.4951V118.667Z" fill="black"/>
<path d="M81.0709 118.667H75.5152V124.222H81.0709V118.667Z" fill="black"/>
<path d="M91.8588 118.667H86.303V124.222H91.8588V118.667Z" fill="black"/>
<path d="M102.647 118.667H97.0909V124.222H102.647V118.667Z" fill="black"/>
<path d="M124.222 118.667H118.667V124.222H124.222V118.667Z" fill="black"/>
<path d="M129.616 118.667H124.061V124.222H129.616V118.667Z" fill="black"/>
<path d="M135.01 118.667H129.455V124.222H135.01V118.667Z" fill="black"/>
<path d="M140.404 118.667H134.848V124.222H140.404V118.667Z" fill="black"/>
<path d="M145.798 118.667H140.242V124.222H145.798V118.667Z" fill="black"/>
<path d="M156.586 118.667H151.03V124.222H156.586V118.667Z" fill="black"/>
<path d="M59.4951 124.061H53.9394V129.616H59.4951V124.061Z" fill="black"/>
<path d="M70.2831 124.061H64.7273V129.616H70.2831V124.061Z" fill="black"/>
<path d="M75.677 124.061H70.1212V129.616H75.677V124.061Z" fill="black"/>
<path d="M81.0709 124.061H75.5152V129.616H81.0709V124.061Z" fill="black"/>
<path d="M86.4648 124.061H80.9091V129.616H86.4648V124.061Z" fill="black"/>
<path d="M91.8588 124.061H86.303V129.616H91.8588V124.061Z" fill="black"/>
<path d="M97.2527 124.061H91.697V129.616H97.2527V124.061Z" fill="black"/>
<path d="M113.435 124.061H107.879V129.616H113.435V124.061Z" fill="black"/>
<path d="M118.829 124.061H113.273V129.616H118.829V124.061Z" fill="black"/>
<path d="M124.222 124.061H118.667V129.616H124.222V124.061Z" fill="black"/>
<path d="M145.798 124.061H140.242V129.616H145.798V124.061Z" fill="black"/>
<path d="M151.192 124.061H145.636V129.616H151.192V124.061Z" fill="black"/>
<path d="M161.98 124.061H156.424V129.616H161.98V124.061Z" fill="black"/>
<path d="M167.374 124.061H161.818V129.616H167.374V124.061Z" fill="black"/>
<path d="M75.677 129.455H70.1212V135.01H75.677V129.455Z" fill="black"/>
<path d="M86.4648 129.455H80.9091V135.01H86.4648V129.455Z" fill="black"/>
<path d="M91.8588 129.455H86.303V135.01H91.8588V129.455Z" fill="black"/>
<path d="M97.2527 129.455H91.697V135.01H97.2527V129.455Z" fill="black"/>
<path d="M113.435 129.455H107.879V135.01H113.435V129.455Z" fill="black"/>
<path d="M118.829 129.455H113.273V135.01H118.829V129.455Z" fill="black"/>
<path d="M124.222 129.455H118.667V135.01H124.222V129.455Z" fill="black"/>
<path d="M135.01 129.455H129.455V135.01H135.01V129.455Z" fill="black"/>
<path d="M145.798 129.455H140.242V135.01H145.798V129.455Z" fill="black"/>
<path d="M70.2831 134.848H64.7273V140.404H70.2831V134.848Z" fill="black"/>
<path d="M91.8588 134.848H86.303V140.404H91.8588V134.848Z" fill="black"/>
<path d="M97.2527 134.848H91.697V140.404H97.2527V134.848Z" fill="black"/>
<path d="M118.829 134.848H113.273V140.404H118.829V134.848Z" fill="black"/>
<path d="M124.222 134.848H118.667V140.404H124.222V134.848Z" fill="black"/>
<path d="M145.798 134.848H140.242V140.404H145.798V134.848Z" fill="black"/>
<path d="M151.192 134.848H145.636V140.404H151.192V134.848Z" fill="black"/>
<path d="M161.98 134.848H156.424V140.404H161.98V134.848Z" fill="black"/>
<path d="M59.4951 140.242H53.9394V145.798H59.4951V140.242Z" fill="black"/>
<path d="M81.0709 140.242H75.5152V145.798H81.0709V140.242Z" fill="black"/>
<path d="M86.4648 140.242H80.9091V145.798H86.4648V140.242Z" fill="black"/>
<path d="M91.8588 140.242H86.303V145.798H91.8588V140.242Z" fill="black"/>
<path d="M97.2527 140.242H91.697V145.798H97.2527V140.242Z" fill="black"/>
<path d="M108.041 140.242H102.485V145.798H108.041V140.242Z" fill="black"/>
<path d="M113.435 140.242H107.879V145.798H113.435V140.242Z" fill="black"/>
<path d="M124.222 140.242H118.667V145.798H124.222V140.242Z" fill="black"/>
<path d="M129.616 140.242H124.061V145.798H129.616V140.242Z" fill="black"/>
<path d="M135.01 140.242H129.455V145.798H135.01V140.242Z" fill="black"/>
<path d="M140.404 140.242H134.848V145.798H140.404V140.242Z" fill="black"/>
<path d="M145.798 140.242H140.242V145.798H145.798V140.242Z" fill="black"/>
<path d="M151.192 140.242H145.636V145.798H151.192V140.242Z" fill="black"/>
<path d="M156.586 140.242H151.03V145.798H156.586V140.242Z" fill="black"/>
<path d="M167.374 140.242H161.818V145.798H167.374V140.242Z" fill="black"/>
<path d="M59.4951 145.636H53.9394V151.192H59.4951V145.636Z" fill="black"/>
<path d="M64.8891 145.636H59.3333V151.192H64.8891V145.636Z" fill="black"/>
<path d="M70.2831 145.636H64.7273V151.192H70.2831V145.636Z" fill="black"/>
<path d="M75.677 145.636H70.1212V151.192H75.677V145.636Z" fill="black"/>
<path d="M91.8588 145.636H86.303V151.192H91.8588V145.636Z" fill="black"/>
<path d="M102.647 145.636H97.0909V151.192H102.647V145.636Z" fill="black"/>
<path d="M118.829 145.636H113.273V151.192H118.829V145.636Z" fill="black"/>
<path d="M124.222 145.636H118.667V151.192H124.222V145.636Z" fill="black"/>
<path d="M129.616 145.636H124.061V151.192H129.616V145.636Z" fill="black"/>
<path d="M140.404 145.636H134.848V151.192H140.404V145.636Z" fill="black"/>
<path d="M151.192 145.636H145.636V151.192H151.192V145.636Z" fill="black"/>
<path d="M156.586 145.636H151.03V151.192H156.586V145.636Z" fill="black"/>
<path d="M59.4951 151.03H53.9394V156.586H59.4951V151.03Z" fill="black"/>
<path d="M64.8891 151.03H59.3333V156.586H64.8891V151.03Z" fill="black"/>
<path d="M81.0709 151.03H75.5152V156.586H81.0709V151.03Z" fill="black"/>
<path d="M91.8588 151.03H86.303V156.586H91.8588V151.03Z" fill="black"/>
<path d="M102.647 151.03H97.0909V156.586H102.647V151.03Z" fill="black"/>
<path d="M113.435 151.03H107.879V156.586H113.435V151.03Z" fill="black"/>
<path d="M118.829 151.03H113.273V156.586H118.829V151.03Z" fill="black"/>
<path d="M124.222 151.03H118.667V156.586H124.222V151.03Z" fill="black"/>
<path d="M129.616 151.03H124.061V156.586H129.616V151.03Z" fill="black"/>
<path d="M135.01 151.03H129.455V156.586H135.01V151.03Z" fill="black"/>
<path d="M140.404 151.03H134.848V156.586H140.404V151.03Z" fill="black"/>
<path d="M145.798 151.03H140.242V156.586H145.798V151.03Z" fill="black"/>
<path d="M151.192 151.03H145.636V156.586H151.192V151.03Z" fill="black"/>
<path d="M156.586 151.03H151.03V156.586H156.586V151.03Z" fill="black"/>
<path d="M161.98 151.03H156.424V156.586H161.98V151.03Z" fill="black"/>
<path d="M70.2831 156.424H64.7273V161.98H70.2831V156.424Z" fill="black"/>
<path d="M86.4648 156.424H80.9091V161.98H86.4648V156.424Z" fill="black"/>
<path d="M91.8588 156.424H86.303V161.98H91.8588V156.424Z" fill="black"/>
<path d="M97.2527 156.424H91.697V161.98H97.2527V156.424Z" fill="black"/>
<path d="M102.647 156.424H97.0909V161.98H102.647V156.424Z" fill="black"/>
<path d="M118.829 156.424H113.273V161.98H118.829V156.424Z" fill="black"/>
<path d="M124.222 156.424H118.667V161.98H124.222V156.424Z" fill="black"/>
<path d="M145.798 156.424H140.242V161.98H145.798V156.424Z" fill="black"/>
<path d="M151.192 156.424H145.636V161.98H151.192V156.424Z" fill="black"/>
<path d="M161.98 156.424H156.424V161.98H161.98V156.424Z" fill="black"/>
<path d="M70.2831 161.818H64.7273V167.374H70.2831V161.818Z" fill="black"/>
<path d="M97.2527 161.818H91.697V167.374H97.2527V161.818Z" fill="black"/>
<path d="M102.647 161.818H97.0909V167.374H102.647V161.818Z" fill="black"/>
<path d="M108.041 161.818H102.485V167.374H108.041V161.818Z" fill="black"/>
<path d="M118.829 161.818H113.273V167.374H118.829V161.818Z" fill="black"/>
<path d="M145.798 161.818H140.242V167.374H145.798V161.818Z" fill="black"/>
<path d="M10.7879 10.7879V48.5455H48.5455V10.7879H10.7879ZM43.1515 43.1515H16.1818V16.1818H43.1515V43.1515Z" fill="black"/>
<path d="M129.455 10.7879V48.5455H167.212V10.7879H129.455ZM161.818 43.1515H134.848V16.1818H161.818V43.1515Z" fill="black"/>
<path d="M10.7879 129.455V167.212H48.5455V129.455H10.7879ZM43.1515 161.818H16.1818V134.849H43.1515V161.818Z" fill="black"/>
<path d="M37.7576 21.5758H21.5758V37.7576H37.7576V21.5758Z" fill="black"/>
<path d="M156.424 21.5758H140.242V37.7576H156.424V21.5758Z" fill="black"/>
<path d="M37.7576 140.242H21.5758V156.424H37.7576V140.242Z" fill="black"/>
</g>
<defs>
<clipPath id="clip0_1329_29141">
<rect width="178" height="178" fill="white"/>
</clipPath>
</defs>
</svg>
