<svg width="283" height="283" viewBox="0 0 283 283" fill="none" xmlns="http://www.w3.org/2000/svg">
<g clip-path="url(#clip0_1328_27599)">
<path d="M283 0H0V283H283V0Z" fill="white"/>
<path d="M94.5906 17.1515H85.7576V25.9846H94.5906V17.1515Z" fill="black"/>
<path d="M146.045 17.1515H137.212V25.9846H146.045V17.1515Z" fill="black"/>
<path d="M163.197 17.1515H154.364V25.9846H163.197V17.1515Z" fill="black"/>
<path d="M171.772 17.1515H162.939V25.9846H171.772V17.1515Z" fill="black"/>
<path d="M180.348 17.1515H171.515V25.9846H180.348V17.1515Z" fill="black"/>
<path d="M197.5 17.1515H188.667V25.9846H197.5V17.1515Z" fill="black"/>
<path d="M94.5906 25.7273H85.7576V34.5603H94.5906V25.7273Z" fill="black"/>
<path d="M103.166 25.7273H94.3333V34.5603H103.166V25.7273Z" fill="black"/>
<path d="M111.742 25.7273H102.909V34.5603H111.742V25.7273Z" fill="black"/>
<path d="M146.045 25.7273H137.212V34.5603H146.045V25.7273Z" fill="black"/>
<path d="M163.197 25.7273H154.364V34.5603H163.197V25.7273Z" fill="black"/>
<path d="M171.772 25.7273H162.939V34.5603H171.772V25.7273Z" fill="black"/>
<path d="M188.924 25.7273H180.091V34.5603H188.924V25.7273Z" fill="black"/>
<path d="M94.5906 34.303H85.7576V43.1361H94.5906V34.303Z" fill="black"/>
<path d="M120.318 34.303H111.485V43.1361H120.318V34.303Z" fill="black"/>
<path d="M163.197 34.303H154.364V43.1361H163.197V34.303Z" fill="black"/>
<path d="M180.348 34.303H171.515V43.1361H180.348V34.303Z" fill="black"/>
<path d="M188.924 34.303H180.091V43.1361H188.924V34.303Z" fill="black"/>
<path d="M197.5 34.303H188.667V43.1361H197.5V34.303Z" fill="black"/>
<path d="M111.742 42.8788H102.909V51.7118H111.742V42.8788Z" fill="black"/>
<path d="M120.318 42.8788H111.485V51.7118H120.318V42.8788Z" fill="black"/>
<path d="M137.469 42.8788H128.636V51.7118H137.469V42.8788Z" fill="black"/>
<path d="M146.045 42.8788H137.212V51.7118H146.045V42.8788Z" fill="black"/>
<path d="M154.621 42.8788H145.788V51.7118H154.621V42.8788Z" fill="black"/>
<path d="M163.197 42.8788H154.364V51.7118H163.197V42.8788Z" fill="black"/>
<path d="M171.772 42.8788H162.939V51.7118H171.772V42.8788Z" fill="black"/>
<path d="M188.924 42.8788H180.091V51.7118H188.924V42.8788Z" fill="black"/>
<path d="M111.742 51.4545H102.909V60.2876H111.742V51.4545Z" fill="black"/>
<path d="M120.318 51.4545H111.485V60.2876H120.318V51.4545Z" fill="black"/>
<path d="M128.894 51.4545H120.061V60.2876H128.894V51.4545Z" fill="black"/>
<path d="M163.197 51.4545H154.364V60.2876H163.197V51.4545Z" fill="black"/>
<path d="M180.348 51.4545H171.515V60.2876H180.348V51.4545Z" fill="black"/>
<path d="M188.924 51.4545H180.091V60.2876H188.924V51.4545Z" fill="black"/>
<path d="M94.5906 60.0303H85.7576V68.8633H94.5906V60.0303Z" fill="black"/>
<path d="M103.166 60.0303H94.3333V68.8633H103.166V60.0303Z" fill="black"/>
<path d="M128.894 60.0303H120.061V68.8633H128.894V60.0303Z" fill="black"/>
<path d="M146.045 60.0303H137.212V68.8633H146.045V60.0303Z" fill="black"/>
<path d="M154.621 60.0303H145.788V68.8633H154.621V60.0303Z" fill="black"/>
<path d="M163.197 60.0303H154.364V68.8633H163.197V60.0303Z" fill="black"/>
<path d="M180.348 60.0303H171.515V68.8633H180.348V60.0303Z" fill="black"/>
<path d="M94.5906 68.606H85.7576V77.4391H94.5906V68.606Z" fill="black"/>
<path d="M111.742 68.606H102.909V77.4391H111.742V68.606Z" fill="black"/>
<path d="M128.894 68.606H120.061V77.4391H128.894V68.606Z" fill="black"/>
<path d="M146.045 68.606H137.212V77.4391H146.045V68.606Z" fill="black"/>
<path d="M163.197 68.606H154.364V77.4391H163.197V68.606Z" fill="black"/>
<path d="M180.348 68.606H171.515V77.4391H180.348V68.606Z" fill="black"/>
<path d="M197.5 68.606H188.667V77.4391H197.5V68.606Z" fill="black"/>
<path d="M94.5906 77.1818H85.7576V86.0149H94.5906V77.1818Z" fill="black"/>
<path d="M103.166 77.1818H94.3333V86.0149H103.166V77.1818Z" fill="black"/>
<path d="M111.742 77.1818H102.909V86.0149H111.742V77.1818Z" fill="black"/>
<path d="M120.318 77.1818H111.485V86.0149H120.318V77.1818Z" fill="black"/>
<path d="M128.894 77.1818H120.061V86.0149H128.894V77.1818Z" fill="black"/>
<path d="M137.469 77.1818H128.636V86.0149H137.469V77.1818Z" fill="black"/>
<path d="M146.045 77.1818H137.212V86.0149H146.045V77.1818Z" fill="black"/>
<path d="M154.621 77.1818H145.788V86.0149H154.621V77.1818Z" fill="black"/>
<path d="M163.197 77.1818H154.364V86.0149H163.197V77.1818Z" fill="black"/>
<path d="M188.924 77.1818H180.091V86.0149H188.924V77.1818Z" fill="black"/>
<path d="M43.136 85.7576H34.303V94.5906H43.136V85.7576Z" fill="black"/>
<path d="M51.7118 85.7576H42.8788V94.5906H51.7118V85.7576Z" fill="black"/>
<path d="M60.2876 85.7576H51.4545V94.5906H60.2876V85.7576Z" fill="black"/>
<path d="M77.4391 85.7576H68.6061V94.5906H77.4391V85.7576Z" fill="black"/>
<path d="M94.5906 85.7576H85.7576V94.5906H94.5906V85.7576Z" fill="black"/>
<path d="M103.166 85.7576H94.3333V94.5906H103.166V85.7576Z" fill="black"/>
<path d="M111.742 85.7576H102.909V94.5906H111.742V85.7576Z" fill="black"/>
<path d="M146.045 85.7576H137.212V94.5906H146.045V85.7576Z" fill="black"/>
<path d="M154.621 85.7576H145.788V94.5906H154.621V85.7576Z" fill="black"/>
<path d="M163.197 85.7576H154.364V94.5906H163.197V85.7576Z" fill="black"/>
<path d="M180.348 85.7576H171.515V94.5906H180.348V85.7576Z" fill="black"/>
<path d="M206.075 85.7576H197.242V94.5906H206.075V85.7576Z" fill="black"/>
<path d="M214.651 85.7576H205.818V94.5906H214.651V85.7576Z" fill="black"/>
<path d="M223.227 85.7576H214.394V94.5906H223.227V85.7576Z" fill="black"/>
<path d="M248.954 85.7576H240.121V94.5906H248.954V85.7576Z" fill="black"/>
<path d="M257.53 85.7576H248.697V94.5906H257.53V85.7576Z" fill="black"/>
<path d="M266.106 85.7576H257.273V94.5906H266.106V85.7576Z" fill="black"/>
<path d="M34.5603 94.3333H25.7272V103.166H34.5603V94.3333Z" fill="black"/>
<path d="M51.7118 94.3333H42.8788V103.166H51.7118V94.3333Z" fill="black"/>
<path d="M86.0148 94.3333H77.1818V103.166H86.0148V94.3333Z" fill="black"/>
<path d="M103.166 94.3333H94.3333V103.166H103.166V94.3333Z" fill="black"/>
<path d="M111.742 94.3333H102.909V103.166H111.742V94.3333Z" fill="black"/>
<path d="M120.318 94.3333H111.485V103.166H120.318V94.3333Z" fill="black"/>
<path d="M154.621 94.3333H145.788V103.166H154.621V94.3333Z" fill="black"/>
<path d="M163.197 94.3333H154.364V103.166H163.197V94.3333Z" fill="black"/>
<path d="M171.772 94.3333H162.939V103.166H171.772V94.3333Z" fill="black"/>
<path d="M206.075 94.3333H197.242V103.166H206.075V94.3333Z" fill="black"/>
<path d="M223.227 94.3333H214.394V103.166H223.227V94.3333Z" fill="black"/>
<path d="M231.803 94.3333H222.97V103.166H231.803V94.3333Z" fill="black"/>
<path d="M240.378 94.3333H231.545V103.166H240.378V94.3333Z" fill="black"/>
<path d="M248.954 94.3333H240.121V103.166H248.954V94.3333Z" fill="black"/>
<path d="M266.106 94.3333H257.273V103.166H266.106V94.3333Z" fill="black"/>
<path d="M34.5603 102.909H25.7272V111.742H34.5603V102.909Z" fill="black"/>
<path d="M51.7118 102.909H42.8788V111.742H51.7118V102.909Z" fill="black"/>
<path d="M60.2876 102.909H51.4545V111.742H60.2876V102.909Z" fill="black"/>
<path d="M68.8633 102.909H60.0303V111.742H68.8633V102.909Z" fill="black"/>
<path d="M77.4391 102.909H68.6061V111.742H77.4391V102.909Z" fill="black"/>
<path d="M86.0148 102.909H77.1818V111.742H86.0148V102.909Z" fill="black"/>
<path d="M94.5906 102.909H85.7576V111.742H94.5906V102.909Z" fill="black"/>
<path d="M111.742 102.909H102.909V111.742H111.742V102.909Z" fill="black"/>
<path d="M120.318 102.909H111.485V111.742H120.318V102.909Z" fill="black"/>
<path d="M128.894 102.909H120.061V111.742H128.894V102.909Z" fill="black"/>
<path d="M137.469 102.909H128.636V111.742H137.469V102.909Z" fill="black"/>
<path d="M146.045 102.909H137.212V111.742H146.045V102.909Z" fill="black"/>
<path d="M206.075 102.909H197.242V111.742H206.075V102.909Z" fill="black"/>
<path d="M214.651 102.909H205.818V111.742H214.651V102.909Z" fill="black"/>
<path d="M231.803 102.909H222.97V111.742H231.803V102.909Z" fill="black"/>
<path d="M248.954 102.909H240.121V111.742H248.954V102.909Z" fill="black"/>
<path d="M51.7118 111.485H42.8788V120.318H51.7118V111.485Z" fill="black"/>
<path d="M86.0148 111.485H77.1818V120.318H86.0148V111.485Z" fill="black"/>
<path d="M94.5906 111.485H85.7576V120.318H94.5906V111.485Z" fill="black"/>
<path d="M103.166 111.485H94.3333V120.318H103.166V111.485Z" fill="black"/>
<path d="M111.742 111.485H102.909V120.318H111.742V111.485Z" fill="black"/>
<path d="M120.318 111.485H111.485V120.318H120.318V111.485Z" fill="black"/>
<path d="M154.621 111.485H145.788V120.318H154.621V111.485Z" fill="black"/>
<path d="M171.772 111.485H162.939V120.318H171.772V111.485Z" fill="black"/>
<path d="M197.5 111.485H188.667V120.318H197.5V111.485Z" fill="black"/>
<path d="M206.075 111.485H197.242V120.318H206.075V111.485Z" fill="black"/>
<path d="M214.651 111.485H205.818V120.318H214.651V111.485Z" fill="black"/>
<path d="M240.378 111.485H231.545V120.318H240.378V111.485Z" fill="black"/>
<path d="M257.53 111.485H248.697V120.318H257.53V111.485Z" fill="black"/>
<path d="M34.5603 120.061H25.7272V128.894H34.5603V120.061Z" fill="black"/>
<path d="M43.136 120.061H34.303V128.894H43.136V120.061Z" fill="black"/>
<path d="M51.7118 120.061H42.8788V128.894H51.7118V120.061Z" fill="black"/>
<path d="M60.2876 120.061H51.4545V128.894H60.2876V120.061Z" fill="black"/>
<path d="M68.8633 120.061H60.0303V128.894H68.8633V120.061Z" fill="black"/>
<path d="M77.4391 120.061H68.6061V128.894H77.4391V120.061Z" fill="black"/>
<path d="M86.0148 120.061H77.1818V128.894H86.0148V120.061Z" fill="black"/>
<path d="M94.5906 120.061H85.7576V128.894H94.5906V120.061Z" fill="black"/>
<path d="M137.469 120.061H128.636V128.894H137.469V120.061Z" fill="black"/>
<path d="M146.045 120.061H137.212V128.894H146.045V120.061Z" fill="black"/>
<path d="M163.197 120.061H154.364V128.894H163.197V120.061Z" fill="black"/>
<path d="M188.924 120.061H180.091V128.894H188.924V120.061Z" fill="black"/>
<path d="M197.5 120.061H188.667V128.894H197.5V120.061Z" fill="black"/>
<path d="M206.075 120.061H197.242V128.894H206.075V120.061Z" fill="black"/>
<path d="M223.227 120.061H214.394V128.894H223.227V120.061Z" fill="black"/>
<path d="M248.954 120.061H240.121V128.894H248.954V120.061Z" fill="black"/>
<path d="M257.53 120.061H248.697V128.894H257.53V120.061Z" fill="black"/>
<path d="M266.106 120.061H257.273V128.894H266.106V120.061Z" fill="black"/>
<path d="M25.9845 128.636H17.1515V137.469H25.9845V128.636Z" fill="black"/>
<path d="M43.136 128.636H34.303V137.469H43.136V128.636Z" fill="black"/>
<path d="M51.7118 128.636H42.8788V137.469H51.7118V128.636Z" fill="black"/>
<path d="M68.8633 128.636H60.0303V137.469H68.8633V128.636Z" fill="black"/>
<path d="M86.0148 128.636H77.1818V137.469H86.0148V128.636Z" fill="black"/>
<path d="M103.166 128.636H94.3333V137.469H103.166V128.636Z" fill="black"/>
<path d="M111.742 128.636H102.909V137.469H111.742V128.636Z" fill="black"/>
<path d="M128.894 128.636H120.061V137.469H128.894V128.636Z" fill="black"/>
<path d="M137.469 128.636H128.636V137.469H137.469V128.636Z" fill="black"/>
<path d="M154.621 128.636H145.788V137.469H154.621V128.636Z" fill="black"/>
<path d="M171.772 128.636H162.939V137.469H171.772V128.636Z" fill="black"/>
<path d="M180.348 128.636H171.515V137.469H180.348V128.636Z" fill="black"/>
<path d="M188.924 128.636H180.091V137.469H188.924V128.636Z" fill="black"/>
<path d="M197.5 128.636H188.667V137.469H197.5V128.636Z" fill="black"/>
<path d="M206.075 128.636H197.242V137.469H206.075V128.636Z" fill="black"/>
<path d="M214.651 128.636H205.818V137.469H214.651V128.636Z" fill="black"/>
<path d="M231.803 128.636H222.97V137.469H231.803V128.636Z" fill="black"/>
<path d="M240.378 128.636H231.545V137.469H240.378V128.636Z" fill="black"/>
<path d="M257.53 128.636H248.697V137.469H257.53V128.636Z" fill="black"/>
<path d="M266.106 128.636H257.273V137.469H266.106V128.636Z" fill="black"/>
<path d="M34.5603 137.212H25.7272V146.045H34.5603V137.212Z" fill="black"/>
<path d="M60.2876 137.212H51.4545V146.045H60.2876V137.212Z" fill="black"/>
<path d="M68.8633 137.212H60.0303V146.045H68.8633V137.212Z" fill="black"/>
<path d="M77.4391 137.212H68.6061V146.045H77.4391V137.212Z" fill="black"/>
<path d="M94.5906 137.212H85.7576V146.045H94.5906V137.212Z" fill="black"/>
<path d="M103.166 137.212H94.3333V146.045H103.166V137.212Z" fill="black"/>
<path d="M128.894 137.212H120.061V146.045H128.894V137.212Z" fill="black"/>
<path d="M171.772 137.212H162.939V146.045H171.772V137.212Z" fill="black"/>
<path d="M197.5 137.212H188.667V146.045H197.5V137.212Z" fill="black"/>
<path d="M223.227 137.212H214.394V146.045H223.227V137.212Z" fill="black"/>
<path d="M43.136 145.788H34.303V154.621H43.136V145.788Z" fill="black"/>
<path d="M60.2876 145.788H51.4545V154.621H60.2876V145.788Z" fill="black"/>
<path d="M68.8633 145.788H60.0303V154.621H68.8633V145.788Z" fill="black"/>
<path d="M86.0148 145.788H77.1818V154.621H86.0148V145.788Z" fill="black"/>
<path d="M94.5906 145.788H85.7576V154.621H94.5906V145.788Z" fill="black"/>
<path d="M103.166 145.788H94.3333V154.621H103.166V145.788Z" fill="black"/>
<path d="M128.894 145.788H120.061V154.621H128.894V145.788Z" fill="black"/>
<path d="M137.469 145.788H128.636V154.621H137.469V145.788Z" fill="black"/>
<path d="M154.621 145.788H145.788V154.621H154.621V145.788Z" fill="black"/>
<path d="M171.772 145.788H162.939V154.621H171.772V145.788Z" fill="black"/>
<path d="M180.348 145.788H171.515V154.621H180.348V145.788Z" fill="black"/>
<path d="M231.803 145.788H222.97V154.621H231.803V145.788Z" fill="black"/>
<path d="M240.378 145.788H231.545V154.621H240.378V145.788Z" fill="black"/>
<path d="M25.9845 154.364H17.1515V163.197H25.9845V154.364Z" fill="black"/>
<path d="M34.5603 154.364H25.7272V163.197H34.5603V154.364Z" fill="black"/>
<path d="M43.136 154.364H34.303V163.197H43.136V154.364Z" fill="black"/>
<path d="M68.8633 154.364H60.0303V163.197H68.8633V154.364Z" fill="black"/>
<path d="M77.4391 154.364H68.6061V163.197H77.4391V154.364Z" fill="black"/>
<path d="M86.0148 154.364H77.1818V163.197H86.0148V154.364Z" fill="black"/>
<path d="M94.5906 154.364H85.7576V163.197H94.5906V154.364Z" fill="black"/>
<path d="M103.166 154.364H94.3333V163.197H103.166V154.364Z" fill="black"/>
<path d="M111.742 154.364H102.909V163.197H111.742V154.364Z" fill="black"/>
<path d="M120.318 154.364H111.485V163.197H120.318V154.364Z" fill="black"/>
<path d="M128.894 154.364H120.061V163.197H128.894V154.364Z" fill="black"/>
<path d="M146.045 154.364H137.212V163.197H146.045V154.364Z" fill="black"/>
<path d="M171.772 154.364H162.939V163.197H171.772V154.364Z" fill="black"/>
<path d="M180.348 154.364H171.515V163.197H180.348V154.364Z" fill="black"/>
<path d="M223.227 154.364H214.394V163.197H223.227V154.364Z" fill="black"/>
<path d="M231.803 154.364H222.97V163.197H231.803V154.364Z" fill="black"/>
<path d="M240.378 154.364H231.545V163.197H240.378V154.364Z" fill="black"/>
<path d="M248.954 154.364H240.121V163.197H248.954V154.364Z" fill="black"/>
<path d="M257.53 154.364H248.697V163.197H257.53V154.364Z" fill="black"/>
<path d="M266.106 154.364H257.273V163.197H266.106V154.364Z" fill="black"/>
<path d="M25.9845 162.939H17.1515V171.772H25.9845V162.939Z" fill="black"/>
<path d="M34.5603 162.939H25.7272V171.772H34.5603V162.939Z" fill="black"/>
<path d="M43.136 162.939H34.303V171.772H43.136V162.939Z" fill="black"/>
<path d="M60.2876 162.939H51.4545V171.772H60.2876V162.939Z" fill="black"/>
<path d="M68.8633 162.939H60.0303V171.772H68.8633V162.939Z" fill="black"/>
<path d="M86.0148 162.939H77.1818V171.772H86.0148V162.939Z" fill="black"/>
<path d="M94.5906 162.939H85.7576V171.772H94.5906V162.939Z" fill="black"/>
<path d="M111.742 162.939H102.909V171.772H111.742V162.939Z" fill="black"/>
<path d="M154.621 162.939H145.788V171.772H154.621V162.939Z" fill="black"/>
<path d="M180.348 162.939H171.515V171.772H180.348V162.939Z" fill="black"/>
<path d="M188.924 162.939H180.091V171.772H188.924V162.939Z" fill="black"/>
<path d="M197.5 162.939H188.667V171.772H197.5V162.939Z" fill="black"/>
<path d="M206.075 162.939H197.242V171.772H206.075V162.939Z" fill="black"/>
<path d="M214.651 162.939H205.818V171.772H214.651V162.939Z" fill="black"/>
<path d="M223.227 162.939H214.394V171.772H223.227V162.939Z" fill="black"/>
<path d="M231.803 162.939H222.97V171.772H231.803V162.939Z" fill="black"/>
<path d="M248.954 162.939H240.121V171.772H248.954V162.939Z" fill="black"/>
<path d="M257.53 162.939H248.697V171.772H257.53V162.939Z" fill="black"/>
<path d="M266.106 162.939H257.273V171.772H266.106V162.939Z" fill="black"/>
<path d="M25.9845 171.515H17.1515V180.348H25.9845V171.515Z" fill="black"/>
<path d="M51.7118 171.515H42.8788V180.348H51.7118V171.515Z" fill="black"/>
<path d="M60.2876 171.515H51.4545V180.348H60.2876V171.515Z" fill="black"/>
<path d="M68.8633 171.515H60.0303V180.348H68.8633V171.515Z" fill="black"/>
<path d="M77.4391 171.515H68.6061V180.348H77.4391V171.515Z" fill="black"/>
<path d="M94.5906 171.515H85.7576V180.348H94.5906V171.515Z" fill="black"/>
<path d="M103.166 171.515H94.3333V180.348H103.166V171.515Z" fill="black"/>
<path d="M137.469 171.515H128.636V180.348H137.469V171.515Z" fill="black"/>
<path d="M154.621 171.515H145.788V180.348H154.621V171.515Z" fill="black"/>
<path d="M180.348 171.515H171.515V180.348H180.348V171.515Z" fill="black"/>
<path d="M214.651 171.515H205.818V180.348H214.651V171.515Z" fill="black"/>
<path d="M240.378 171.515H231.545V180.348H240.378V171.515Z" fill="black"/>
<path d="M248.954 171.515H240.121V180.348H248.954V171.515Z" fill="black"/>
<path d="M25.9845 180.091H17.1515V188.924H25.9845V180.091Z" fill="black"/>
<path d="M51.7118 180.091H42.8788V188.924H51.7118V180.091Z" fill="black"/>
<path d="M60.2876 180.091H51.4545V188.924H60.2876V180.091Z" fill="black"/>
<path d="M111.742 180.091H102.909V188.924H111.742V180.091Z" fill="black"/>
<path d="M137.469 180.091H128.636V188.924H137.469V180.091Z" fill="black"/>
<path d="M146.045 180.091H137.212V188.924H146.045V180.091Z" fill="black"/>
<path d="M163.197 180.091H154.364V188.924H163.197V180.091Z" fill="black"/>
<path d="M188.924 180.091H180.091V188.924H188.924V180.091Z" fill="black"/>
<path d="M197.5 180.091H188.667V188.924H197.5V180.091Z" fill="black"/>
<path d="M214.651 180.091H205.818V188.924H214.651V180.091Z" fill="black"/>
<path d="M223.227 180.091H214.394V188.924H223.227V180.091Z" fill="black"/>
<path d="M257.53 180.091H248.697V188.924H257.53V180.091Z" fill="black"/>
<path d="M266.106 180.091H257.273V188.924H266.106V180.091Z" fill="black"/>
<path d="M25.9845 188.667H17.1515V197.5H25.9845V188.667Z" fill="black"/>
<path d="M43.136 188.667H34.303V197.5H43.136V188.667Z" fill="black"/>
<path d="M51.7118 188.667H42.8788V197.5H51.7118V188.667Z" fill="black"/>
<path d="M68.8633 188.667H60.0303V197.5H68.8633V188.667Z" fill="black"/>
<path d="M77.4391 188.667H68.6061V197.5H77.4391V188.667Z" fill="black"/>
<path d="M94.5906 188.667H85.7576V197.5H94.5906V188.667Z" fill="black"/>
<path d="M128.894 188.667H120.061V197.5H128.894V188.667Z" fill="black"/>
<path d="M146.045 188.667H137.212V197.5H146.045V188.667Z" fill="black"/>
<path d="M163.197 188.667H154.364V197.5H163.197V188.667Z" fill="black"/>
<path d="M197.5 188.667H188.667V197.5H197.5V188.667Z" fill="black"/>
<path d="M206.075 188.667H197.242V197.5H206.075V188.667Z" fill="black"/>
<path d="M214.651 188.667H205.818V197.5H214.651V188.667Z" fill="black"/>
<path d="M223.227 188.667H214.394V197.5H223.227V188.667Z" fill="black"/>
<path d="M231.803 188.667H222.97V197.5H231.803V188.667Z" fill="black"/>
<path d="M248.954 188.667H240.121V197.5H248.954V188.667Z" fill="black"/>
<path d="M94.5906 197.242H85.7576V206.075H94.5906V197.242Z" fill="black"/>
<path d="M111.742 197.242H102.909V206.075H111.742V197.242Z" fill="black"/>
<path d="M120.318 197.242H111.485V206.075H120.318V197.242Z" fill="black"/>
<path d="M128.894 197.242H120.061V206.075H128.894V197.242Z" fill="black"/>
<path d="M137.469 197.242H128.636V206.075H137.469V197.242Z" fill="black"/>
<path d="M146.045 197.242H137.212V206.075H146.045V197.242Z" fill="black"/>
<path d="M154.621 197.242H145.788V206.075H154.621V197.242Z" fill="black"/>
<path d="M180.348 197.242H171.515V206.075H180.348V197.242Z" fill="black"/>
<path d="M188.924 197.242H180.091V206.075H188.924V197.242Z" fill="black"/>
<path d="M197.5 197.242H188.667V206.075H197.5V197.242Z" fill="black"/>
<path d="M231.803 197.242H222.97V206.075H231.803V197.242Z" fill="black"/>
<path d="M240.378 197.242H231.545V206.075H240.378V197.242Z" fill="black"/>
<path d="M257.53 197.242H248.697V206.075H257.53V197.242Z" fill="black"/>
<path d="M266.106 197.242H257.273V206.075H266.106V197.242Z" fill="black"/>
<path d="M120.318 205.818H111.485V214.651H120.318V205.818Z" fill="black"/>
<path d="M137.469 205.818H128.636V214.651H137.469V205.818Z" fill="black"/>
<path d="M146.045 205.818H137.212V214.651H146.045V205.818Z" fill="black"/>
<path d="M154.621 205.818H145.788V214.651H154.621V205.818Z" fill="black"/>
<path d="M180.348 205.818H171.515V214.651H180.348V205.818Z" fill="black"/>
<path d="M188.924 205.818H180.091V214.651H188.924V205.818Z" fill="black"/>
<path d="M197.5 205.818H188.667V214.651H197.5V205.818Z" fill="black"/>
<path d="M214.651 205.818H205.818V214.651H214.651V205.818Z" fill="black"/>
<path d="M231.803 205.818H222.97V214.651H231.803V205.818Z" fill="black"/>
<path d="M111.742 214.394H102.909V223.227H111.742V214.394Z" fill="black"/>
<path d="M146.045 214.394H137.212V223.227H146.045V214.394Z" fill="black"/>
<path d="M154.621 214.394H145.788V223.227H154.621V214.394Z" fill="black"/>
<path d="M188.924 214.394H180.091V223.227H188.924V214.394Z" fill="black"/>
<path d="M197.5 214.394H188.667V223.227H197.5V214.394Z" fill="black"/>
<path d="M231.803 214.394H222.97V223.227H231.803V214.394Z" fill="black"/>
<path d="M240.378 214.394H231.545V223.227H240.378V214.394Z" fill="black"/>
<path d="M257.53 214.394H248.697V223.227H257.53V214.394Z" fill="black"/>
<path d="M94.5906 222.97H85.7576V231.803H94.5906V222.97Z" fill="black"/>
<path d="M128.894 222.97H120.061V231.803H128.894V222.97Z" fill="black"/>
<path d="M137.469 222.97H128.636V231.803H137.469V222.97Z" fill="black"/>
<path d="M146.045 222.97H137.212V231.803H146.045V222.97Z" fill="black"/>
<path d="M154.621 222.97H145.788V231.803H154.621V222.97Z" fill="black"/>
<path d="M171.772 222.97H162.939V231.803H171.772V222.97Z" fill="black"/>
<path d="M180.348 222.97H171.515V231.803H180.348V222.97Z" fill="black"/>
<path d="M197.5 222.97H188.667V231.803H197.5V222.97Z" fill="black"/>
<path d="M206.075 222.97H197.242V231.803H206.075V222.97Z" fill="black"/>
<path d="M214.651 222.97H205.818V231.803H214.651V222.97Z" fill="black"/>
<path d="M223.227 222.97H214.394V231.803H223.227V222.97Z" fill="black"/>
<path d="M231.803 222.97H222.97V231.803H231.803V222.97Z" fill="black"/>
<path d="M240.378 222.97H231.545V231.803H240.378V222.97Z" fill="black"/>
<path d="M248.954 222.97H240.121V231.803H248.954V222.97Z" fill="black"/>
<path d="M266.106 222.97H257.273V231.803H266.106V222.97Z" fill="black"/>
<path d="M94.5906 231.545H85.7576V240.378H94.5906V231.545Z" fill="black"/>
<path d="M103.166 231.545H94.3333V240.378H103.166V231.545Z" fill="black"/>
<path d="M111.742 231.545H102.909V240.378H111.742V231.545Z" fill="black"/>
<path d="M120.318 231.545H111.485V240.378H120.318V231.545Z" fill="black"/>
<path d="M146.045 231.545H137.212V240.378H146.045V231.545Z" fill="black"/>
<path d="M163.197 231.545H154.364V240.378H163.197V231.545Z" fill="black"/>
<path d="M188.924 231.545H180.091V240.378H188.924V231.545Z" fill="black"/>
<path d="M197.5 231.545H188.667V240.378H197.5V231.545Z" fill="black"/>
<path d="M206.075 231.545H197.242V240.378H206.075V231.545Z" fill="black"/>
<path d="M223.227 231.545H214.394V240.378H223.227V231.545Z" fill="black"/>
<path d="M240.378 231.545H231.545V240.378H240.378V231.545Z" fill="black"/>
<path d="M248.954 231.545H240.121V240.378H248.954V231.545Z" fill="black"/>
<path d="M94.5906 240.121H85.7576V248.954H94.5906V240.121Z" fill="black"/>
<path d="M103.166 240.121H94.3333V248.954H103.166V240.121Z" fill="black"/>
<path d="M128.894 240.121H120.061V248.954H128.894V240.121Z" fill="black"/>
<path d="M146.045 240.121H137.212V248.954H146.045V240.121Z" fill="black"/>
<path d="M163.197 240.121H154.364V248.954H163.197V240.121Z" fill="black"/>
<path d="M180.348 240.121H171.515V248.954H180.348V240.121Z" fill="black"/>
<path d="M188.924 240.121H180.091V248.954H188.924V240.121Z" fill="black"/>
<path d="M197.5 240.121H188.667V248.954H197.5V240.121Z" fill="black"/>
<path d="M206.075 240.121H197.242V248.954H206.075V240.121Z" fill="black"/>
<path d="M214.651 240.121H205.818V248.954H214.651V240.121Z" fill="black"/>
<path d="M223.227 240.121H214.394V248.954H223.227V240.121Z" fill="black"/>
<path d="M231.803 240.121H222.97V248.954H231.803V240.121Z" fill="black"/>
<path d="M240.378 240.121H231.545V248.954H240.378V240.121Z" fill="black"/>
<path d="M248.954 240.121H240.121V248.954H248.954V240.121Z" fill="black"/>
<path d="M257.53 240.121H248.697V248.954H257.53V240.121Z" fill="black"/>
<path d="M111.742 248.697H102.909V257.53H111.742V248.697Z" fill="black"/>
<path d="M137.469 248.697H128.636V257.53H137.469V248.697Z" fill="black"/>
<path d="M146.045 248.697H137.212V257.53H146.045V248.697Z" fill="black"/>
<path d="M154.621 248.697H145.788V257.53H154.621V248.697Z" fill="black"/>
<path d="M163.197 248.697H154.364V257.53H163.197V248.697Z" fill="black"/>
<path d="M188.924 248.697H180.091V257.53H188.924V248.697Z" fill="black"/>
<path d="M197.5 248.697H188.667V257.53H197.5V248.697Z" fill="black"/>
<path d="M231.803 248.697H222.97V257.53H231.803V248.697Z" fill="black"/>
<path d="M240.378 248.697H231.545V257.53H240.378V248.697Z" fill="black"/>
<path d="M257.53 248.697H248.697V257.53H257.53V248.697Z" fill="black"/>
<path d="M111.742 257.273H102.909V266.106H111.742V257.273Z" fill="black"/>
<path d="M154.621 257.273H145.788V266.106H154.621V257.273Z" fill="black"/>
<path d="M163.197 257.273H154.364V266.106H163.197V257.273Z" fill="black"/>
<path d="M171.772 257.273H162.939V266.106H171.772V257.273Z" fill="black"/>
<path d="M188.924 257.273H180.091V266.106H188.924V257.273Z" fill="black"/>
<path d="M231.803 257.273H222.97V266.106H231.803V257.273Z" fill="black"/>
<path d="M17.1515 17.1515V77.1818H77.1818V17.1515H17.1515ZM68.606 68.6061H25.7272V25.7273H68.606V68.6061Z" fill="black"/>
<path d="M205.818 17.1515V77.1818H265.849V17.1515H205.818ZM257.273 68.6061H214.394V25.7273H257.273V68.6061Z" fill="black"/>
<path d="M17.1515 205.818V265.849H77.1818V205.818H17.1515ZM68.606 257.273H25.7272V214.394H68.606V257.273Z" fill="black"/>
<path d="M60.0303 34.303H34.303V60.0303H60.0303V34.303Z" fill="black"/>
<path d="M248.697 34.303H222.97V60.0303H248.697V34.303Z" fill="black"/>
<path d="M60.0303 222.97H34.303V248.697H60.0303V222.97Z" fill="black"/>
</g>
<defs>
<clipPath id="clip0_1328_27599">
<rect width="283" height="283" fill="white"/>
</clipPath>
</defs>
</svg>
