<svg width="321" height="321" viewBox="0 0 321 321" fill="none" xmlns="http://www.w3.org/2000/svg">
<g clip-path="url(#clip0_1329_30028)">
<path d="M321 0H0V321H321V0Z" fill="white"/>
<path d="M107.292 19.4545H97.2727V29.4736H107.292V19.4545Z" fill="black"/>
<path d="M165.655 19.4545H155.636V29.4736H165.655V19.4545Z" fill="black"/>
<path d="M185.11 19.4545H175.091V29.4736H185.11V19.4545Z" fill="black"/>
<path d="M194.837 19.4545H184.818V29.4736H194.837V19.4545Z" fill="black"/>
<path d="M204.565 19.4545H194.545V29.4736H204.565V19.4545Z" fill="black"/>
<path d="M224.019 19.4545H214V29.4736H224.019V19.4545Z" fill="black"/>
<path d="M107.292 29.1818H97.2727V39.2009H107.292V29.1818Z" fill="black"/>
<path d="M117.019 29.1818H107V39.2009H117.019V29.1818Z" fill="black"/>
<path d="M126.746 29.1818H116.727V39.2009H126.746V29.1818Z" fill="black"/>
<path d="M165.655 29.1818H155.636V39.2009H165.655V29.1818Z" fill="black"/>
<path d="M185.11 29.1818H175.091V39.2009H185.11V29.1818Z" fill="black"/>
<path d="M194.837 29.1818H184.818V39.2009H194.837V29.1818Z" fill="black"/>
<path d="M214.292 29.1818H204.273V39.2009H214.292V29.1818Z" fill="black"/>
<path d="M107.292 38.9091H97.2727V48.9282H107.292V38.9091Z" fill="black"/>
<path d="M136.474 38.9091H126.455V48.9282H136.474V38.9091Z" fill="black"/>
<path d="M185.11 38.9091H175.091V48.9282H185.11V38.9091Z" fill="black"/>
<path d="M204.565 38.9091H194.545V48.9282H204.565V38.9091Z" fill="black"/>
<path d="M214.292 38.9091H204.273V48.9282H214.292V38.9091Z" fill="black"/>
<path d="M224.019 38.9091H214V48.9282H224.019V38.9091Z" fill="black"/>
<path d="M126.746 48.6364H116.727V58.6554H126.746V48.6364Z" fill="black"/>
<path d="M136.474 48.6364H126.455V58.6554H136.474V48.6364Z" fill="black"/>
<path d="M155.928 48.6364H145.909V58.6554H155.928V48.6364Z" fill="black"/>
<path d="M165.655 48.6364H155.636V58.6554H165.655V48.6364Z" fill="black"/>
<path d="M175.383 48.6364H165.364V58.6554H175.383V48.6364Z" fill="black"/>
<path d="M185.11 48.6364H175.091V58.6554H185.11V48.6364Z" fill="black"/>
<path d="M194.837 48.6364H184.818V58.6554H194.837V48.6364Z" fill="black"/>
<path d="M214.292 48.6364H204.273V58.6554H214.292V48.6364Z" fill="black"/>
<path d="M126.746 58.3636H116.727V68.3827H126.746V58.3636Z" fill="black"/>
<path d="M136.474 58.3636H126.455V68.3827H136.474V58.3636Z" fill="black"/>
<path d="M146.201 58.3636H136.182V68.3827H146.201V58.3636Z" fill="black"/>
<path d="M185.11 58.3636H175.091V68.3827H185.11V58.3636Z" fill="black"/>
<path d="M204.565 58.3636H194.545V68.3827H204.565V58.3636Z" fill="black"/>
<path d="M214.292 58.3636H204.273V68.3827H214.292V58.3636Z" fill="black"/>
<path d="M107.292 68.0909H97.2727V78.11H107.292V68.0909Z" fill="black"/>
<path d="M117.019 68.0909H107V78.11H117.019V68.0909Z" fill="black"/>
<path d="M146.201 68.0909H136.182V78.11H146.201V68.0909Z" fill="black"/>
<path d="M165.655 68.0909H155.636V78.11H165.655V68.0909Z" fill="black"/>
<path d="M175.383 68.0909H165.364V78.11H175.383V68.0909Z" fill="black"/>
<path d="M185.11 68.0909H175.091V78.11H185.11V68.0909Z" fill="black"/>
<path d="M204.565 68.0909H194.545V78.11H204.565V68.0909Z" fill="black"/>
<path d="M107.292 77.8182H97.2727V87.8373H107.292V77.8182Z" fill="black"/>
<path d="M126.746 77.8182H116.727V87.8373H126.746V77.8182Z" fill="black"/>
<path d="M146.201 77.8182H136.182V87.8373H146.201V77.8182Z" fill="black"/>
<path d="M165.655 77.8182H155.636V87.8373H165.655V77.8182Z" fill="black"/>
<path d="M185.11 77.8182H175.091V87.8373H185.11V77.8182Z" fill="black"/>
<path d="M204.565 77.8182H194.545V87.8373H204.565V77.8182Z" fill="black"/>
<path d="M224.019 77.8182H214V87.8373H224.019V77.8182Z" fill="black"/>
<path d="M107.292 87.5455H97.2727V97.5646H107.292V87.5455Z" fill="black"/>
<path d="M117.019 87.5455H107V97.5646H117.019V87.5455Z" fill="black"/>
<path d="M126.746 87.5455H116.727V97.5646H126.746V87.5455Z" fill="black"/>
<path d="M136.474 87.5455H126.455V97.5646H136.474V87.5455Z" fill="black"/>
<path d="M146.201 87.5455H136.182V97.5646H146.201V87.5455Z" fill="black"/>
<path d="M155.928 87.5455H145.909V97.5646H155.928V87.5455Z" fill="black"/>
<path d="M165.655 87.5455H155.636V97.5646H165.655V87.5455Z" fill="black"/>
<path d="M175.383 87.5455H165.364V97.5646H175.383V87.5455Z" fill="black"/>
<path d="M185.11 87.5455H175.091V97.5646H185.11V87.5455Z" fill="black"/>
<path d="M214.292 87.5455H204.273V97.5646H214.292V87.5455Z" fill="black"/>
<path d="M48.9283 97.2727H38.9092V107.292H48.9283V97.2727Z" fill="black"/>
<path d="M58.6554 97.2727H48.6364V107.292H58.6554V97.2727Z" fill="black"/>
<path d="M68.3827 97.2727H58.3636V107.292H68.3827V97.2727Z" fill="black"/>
<path d="M87.8373 97.2727H77.8182V107.292H87.8373V97.2727Z" fill="black"/>
<path d="M107.292 97.2727H97.2727V107.292H107.292V97.2727Z" fill="black"/>
<path d="M117.019 97.2727H107V107.292H117.019V97.2727Z" fill="black"/>
<path d="M126.746 97.2727H116.727V107.292H126.746V97.2727Z" fill="black"/>
<path d="M165.655 97.2727H155.636V107.292H165.655V97.2727Z" fill="black"/>
<path d="M175.383 97.2727H165.364V107.292H175.383V97.2727Z" fill="black"/>
<path d="M185.11 97.2727H175.091V107.292H185.11V97.2727Z" fill="black"/>
<path d="M204.565 97.2727H194.545V107.292H204.565V97.2727Z" fill="black"/>
<path d="M233.747 97.2727H223.727V107.292H233.747V97.2727Z" fill="black"/>
<path d="M243.474 97.2727H233.455V107.292H243.474V97.2727Z" fill="black"/>
<path d="M253.201 97.2727H243.182V107.292H253.201V97.2727Z" fill="black"/>
<path d="M282.383 97.2727H272.364V107.292H282.383V97.2727Z" fill="black"/>
<path d="M292.11 97.2727H282.091V107.292H292.11V97.2727Z" fill="black"/>
<path d="M301.837 97.2727H291.818V107.292H301.837V97.2727Z" fill="black"/>
<path d="M39.201 107H29.1819V117.019H39.201V107Z" fill="black"/>
<path d="M58.6554 107H48.6364V117.019H58.6554V107Z" fill="black"/>
<path d="M97.5646 107H87.5455V117.019H97.5646V107Z" fill="black"/>
<path d="M117.019 107H107V117.019H117.019V107Z" fill="black"/>
<path d="M126.746 107H116.727V117.019H126.746V107Z" fill="black"/>
<path d="M136.474 107H126.455V117.019H136.474V107Z" fill="black"/>
<path d="M175.383 107H165.364V117.019H175.383V107Z" fill="black"/>
<path d="M185.11 107H175.091V117.019H185.11V107Z" fill="black"/>
<path d="M194.837 107H184.818V117.019H194.837V107Z" fill="black"/>
<path d="M233.747 107H223.727V117.019H233.747V107Z" fill="black"/>
<path d="M253.201 107H243.182V117.019H253.201V107Z" fill="black"/>
<path d="M262.928 107H252.909V117.019H262.928V107Z" fill="black"/>
<path d="M272.656 107H262.636V117.019H272.656V107Z" fill="black"/>
<path d="M282.383 107H272.364V117.019H282.383V107Z" fill="black"/>
<path d="M301.837 107H291.818V117.019H301.837V107Z" fill="black"/>
<path d="M39.201 116.727H29.1819V126.746H39.201V116.727Z" fill="black"/>
<path d="M58.6554 116.727H48.6364V126.746H58.6554V116.727Z" fill="black"/>
<path d="M68.3827 116.727H58.3636V126.746H68.3827V116.727Z" fill="black"/>
<path d="M78.11 116.727H68.0909V126.746H78.11V116.727Z" fill="black"/>
<path d="M87.8373 116.727H77.8182V126.746H87.8373V116.727Z" fill="black"/>
<path d="M97.5646 116.727H87.5455V126.746H97.5646V116.727Z" fill="black"/>
<path d="M107.292 116.727H97.2727V126.746H107.292V116.727Z" fill="black"/>
<path d="M126.746 116.727H116.727V126.746H126.746V116.727Z" fill="black"/>
<path d="M136.474 116.727H126.455V126.746H136.474V116.727Z" fill="black"/>
<path d="M146.201 116.727H136.182V126.746H146.201V116.727Z" fill="black"/>
<path d="M155.928 116.727H145.909V126.746H155.928V116.727Z" fill="black"/>
<path d="M165.655 116.727H155.636V126.746H165.655V116.727Z" fill="black"/>
<path d="M233.747 116.727H223.727V126.746H233.747V116.727Z" fill="black"/>
<path d="M243.474 116.727H233.455V126.746H243.474V116.727Z" fill="black"/>
<path d="M262.928 116.727H252.909V126.746H262.928V116.727Z" fill="black"/>
<path d="M282.383 116.727H272.364V126.746H282.383V116.727Z" fill="black"/>
<path d="M58.6554 126.455H48.6364V136.474H58.6554V126.455Z" fill="black"/>
<path d="M97.5646 126.455H87.5455V136.474H97.5646V126.455Z" fill="black"/>
<path d="M107.292 126.455H97.2727V136.474H107.292V126.455Z" fill="black"/>
<path d="M117.019 126.455H107V136.474H117.019V126.455Z" fill="black"/>
<path d="M126.746 126.455H116.727V136.474H126.746V126.455Z" fill="black"/>
<path d="M136.474 126.455H126.455V136.474H136.474V126.455Z" fill="black"/>
<path d="M175.383 126.455H165.364V136.474H175.383V126.455Z" fill="black"/>
<path d="M194.837 126.455H184.818V136.474H194.837V126.455Z" fill="black"/>
<path d="M224.019 126.455H214V136.474H224.019V126.455Z" fill="black"/>
<path d="M233.747 126.455H223.727V136.474H233.747V126.455Z" fill="black"/>
<path d="M243.474 126.455H233.455V136.474H243.474V126.455Z" fill="black"/>
<path d="M272.656 126.455H262.636V136.474H272.656V126.455Z" fill="black"/>
<path d="M292.11 126.455H282.091V136.474H292.11V126.455Z" fill="black"/>
<path d="M39.201 136.182H29.1819V146.201H39.201V136.182Z" fill="black"/>
<path d="M48.9283 136.182H38.9092V146.201H48.9283V136.182Z" fill="black"/>
<path d="M58.6554 136.182H48.6364V146.201H58.6554V136.182Z" fill="black"/>
<path d="M68.3827 136.182H58.3636V146.201H68.3827V136.182Z" fill="black"/>
<path d="M78.11 136.182H68.0909V146.201H78.11V136.182Z" fill="black"/>
<path d="M87.8373 136.182H77.8182V146.201H87.8373V136.182Z" fill="black"/>
<path d="M97.5646 136.182H87.5455V146.201H97.5646V136.182Z" fill="black"/>
<path d="M107.292 136.182H97.2727V146.201H107.292V136.182Z" fill="black"/>
<path d="M155.928 136.182H145.909V146.201H155.928V136.182Z" fill="black"/>
<path d="M165.655 136.182H155.636V146.201H165.655V136.182Z" fill="black"/>
<path d="M185.11 136.182H175.091V146.201H185.11V136.182Z" fill="black"/>
<path d="M214.292 136.182H204.273V146.201H214.292V136.182Z" fill="black"/>
<path d="M224.019 136.182H214V146.201H224.019V136.182Z" fill="black"/>
<path d="M233.747 136.182H223.727V146.201H233.747V136.182Z" fill="black"/>
<path d="M253.201 136.182H243.182V146.201H253.201V136.182Z" fill="black"/>
<path d="M282.383 136.182H272.364V146.201H282.383V136.182Z" fill="black"/>
<path d="M292.11 136.182H282.091V146.201H292.11V136.182Z" fill="black"/>
<path d="M301.837 136.182H291.818V146.201H301.837V136.182Z" fill="black"/>
<path d="M29.4737 145.909H19.4546V155.928H29.4737V145.909Z" fill="black"/>
<path d="M48.9283 145.909H38.9092V155.928H48.9283V145.909Z" fill="black"/>
<path d="M58.6554 145.909H48.6364V155.928H58.6554V145.909Z" fill="black"/>
<path d="M78.11 145.909H68.0909V155.928H78.11V145.909Z" fill="black"/>
<path d="M97.5646 145.909H87.5455V155.928H97.5646V145.909Z" fill="black"/>
<path d="M117.019 145.909H107V155.928H117.019V145.909Z" fill="black"/>
<path d="M126.746 145.909H116.727V155.928H126.746V145.909Z" fill="black"/>
<path d="M146.201 145.909H136.182V155.928H146.201V145.909Z" fill="black"/>
<path d="M155.928 145.909H145.909V155.928H155.928V145.909Z" fill="black"/>
<path d="M175.383 145.909H165.364V155.928H175.383V145.909Z" fill="black"/>
<path d="M194.837 145.909H184.818V155.928H194.837V145.909Z" fill="black"/>
<path d="M204.565 145.909H194.545V155.928H204.565V145.909Z" fill="black"/>
<path d="M214.292 145.909H204.273V155.928H214.292V145.909Z" fill="black"/>
<path d="M224.019 145.909H214V155.928H224.019V145.909Z" fill="black"/>
<path d="M233.747 145.909H223.727V155.928H233.747V145.909Z" fill="black"/>
<path d="M243.474 145.909H233.455V155.928H243.474V145.909Z" fill="black"/>
<path d="M262.928 145.909H252.909V155.928H262.928V145.909Z" fill="black"/>
<path d="M272.656 145.909H262.636V155.928H272.656V145.909Z" fill="black"/>
<path d="M292.11 145.909H282.091V155.928H292.11V145.909Z" fill="black"/>
<path d="M301.837 145.909H291.818V155.928H301.837V145.909Z" fill="black"/>
<path d="M39.201 155.636H29.1819V165.655H39.201V155.636Z" fill="black"/>
<path d="M68.3827 155.636H58.3636V165.655H68.3827V155.636Z" fill="black"/>
<path d="M78.11 155.636H68.0909V165.655H78.11V155.636Z" fill="black"/>
<path d="M87.8373 155.636H77.8182V165.655H87.8373V155.636Z" fill="black"/>
<path d="M107.292 155.636H97.2727V165.655H107.292V155.636Z" fill="black"/>
<path d="M117.019 155.636H107V165.655H117.019V155.636Z" fill="black"/>
<path d="M146.201 155.636H136.182V165.655H146.201V155.636Z" fill="black"/>
<path d="M194.837 155.636H184.818V165.655H194.837V155.636Z" fill="black"/>
<path d="M224.019 155.636H214V165.655H224.019V155.636Z" fill="black"/>
<path d="M253.201 155.636H243.182V165.655H253.201V155.636Z" fill="black"/>
<path d="M48.9283 165.364H38.9092V175.383H48.9283V165.364Z" fill="black"/>
<path d="M68.3827 165.364H58.3636V175.383H68.3827V165.364Z" fill="black"/>
<path d="M78.11 165.364H68.0909V175.383H78.11V165.364Z" fill="black"/>
<path d="M97.5646 165.364H87.5455V175.383H97.5646V165.364Z" fill="black"/>
<path d="M107.292 165.364H97.2727V175.383H107.292V165.364Z" fill="black"/>
<path d="M117.019 165.364H107V175.383H117.019V165.364Z" fill="black"/>
<path d="M146.201 165.364H136.182V175.383H146.201V165.364Z" fill="black"/>
<path d="M155.928 165.364H145.909V175.383H155.928V165.364Z" fill="black"/>
<path d="M175.383 165.364H165.364V175.383H175.383V165.364Z" fill="black"/>
<path d="M194.837 165.364H184.818V175.383H194.837V165.364Z" fill="black"/>
<path d="M204.565 165.364H194.545V175.383H204.565V165.364Z" fill="black"/>
<path d="M262.928 165.364H252.909V175.383H262.928V165.364Z" fill="black"/>
<path d="M272.656 165.364H262.636V175.383H272.656V165.364Z" fill="black"/>
<path d="M29.4737 175.091H19.4546V185.11H29.4737V175.091Z" fill="black"/>
<path d="M39.201 175.091H29.1819V185.11H39.201V175.091Z" fill="black"/>
<path d="M48.9283 175.091H38.9092V185.11H48.9283V175.091Z" fill="black"/>
<path d="M78.11 175.091H68.0909V185.11H78.11V175.091Z" fill="black"/>
<path d="M87.8373 175.091H77.8182V185.11H87.8373V175.091Z" fill="black"/>
<path d="M97.5646 175.091H87.5455V185.11H97.5646V175.091Z" fill="black"/>
<path d="M107.292 175.091H97.2727V185.11H107.292V175.091Z" fill="black"/>
<path d="M117.019 175.091H107V185.11H117.019V175.091Z" fill="black"/>
<path d="M126.746 175.091H116.727V185.11H126.746V175.091Z" fill="black"/>
<path d="M136.474 175.091H126.455V185.11H136.474V175.091Z" fill="black"/>
<path d="M146.201 175.091H136.182V185.11H146.201V175.091Z" fill="black"/>
<path d="M165.655 175.091H155.636V185.11H165.655V175.091Z" fill="black"/>
<path d="M194.837 175.091H184.818V185.11H194.837V175.091Z" fill="black"/>
<path d="M204.565 175.091H194.545V185.11H204.565V175.091Z" fill="black"/>
<path d="M253.201 175.091H243.182V185.11H253.201V175.091Z" fill="black"/>
<path d="M262.928 175.091H252.909V185.11H262.928V175.091Z" fill="black"/>
<path d="M272.656 175.091H262.636V185.11H272.656V175.091Z" fill="black"/>
<path d="M282.383 175.091H272.364V185.11H282.383V175.091Z" fill="black"/>
<path d="M292.11 175.091H282.091V185.11H292.11V175.091Z" fill="black"/>
<path d="M301.837 175.091H291.818V185.11H301.837V175.091Z" fill="black"/>
<path d="M29.4737 184.818H19.4546V194.837H29.4737V184.818Z" fill="black"/>
<path d="M39.201 184.818H29.1819V194.837H39.201V184.818Z" fill="black"/>
<path d="M48.9283 184.818H38.9092V194.837H48.9283V184.818Z" fill="black"/>
<path d="M68.3827 184.818H58.3636V194.837H68.3827V184.818Z" fill="black"/>
<path d="M78.11 184.818H68.0909V194.837H78.11V184.818Z" fill="black"/>
<path d="M97.5646 184.818H87.5455V194.837H97.5646V184.818Z" fill="black"/>
<path d="M107.292 184.818H97.2727V194.837H107.292V184.818Z" fill="black"/>
<path d="M126.746 184.818H116.727V194.837H126.746V184.818Z" fill="black"/>
<path d="M175.383 184.818H165.364V194.837H175.383V184.818Z" fill="black"/>
<path d="M204.565 184.818H194.545V194.837H204.565V184.818Z" fill="black"/>
<path d="M214.292 184.818H204.273V194.837H214.292V184.818Z" fill="black"/>
<path d="M224.019 184.818H214V194.837H224.019V184.818Z" fill="black"/>
<path d="M233.747 184.818H223.727V194.837H233.747V184.818Z" fill="black"/>
<path d="M243.474 184.818H233.455V194.837H243.474V184.818Z" fill="black"/>
<path d="M253.201 184.818H243.182V194.837H253.201V184.818Z" fill="black"/>
<path d="M262.928 184.818H252.909V194.837H262.928V184.818Z" fill="black"/>
<path d="M282.383 184.818H272.364V194.837H282.383V184.818Z" fill="black"/>
<path d="M292.11 184.818H282.091V194.837H292.11V184.818Z" fill="black"/>
<path d="M301.837 184.818H291.818V194.837H301.837V184.818Z" fill="black"/>
<path d="M29.4737 194.545H19.4546V204.565H29.4737V194.545Z" fill="black"/>
<path d="M58.6554 194.545H48.6364V204.565H58.6554V194.545Z" fill="black"/>
<path d="M68.3827 194.545H58.3636V204.565H68.3827V194.545Z" fill="black"/>
<path d="M78.11 194.545H68.0909V204.565H78.11V194.545Z" fill="black"/>
<path d="M87.8373 194.545H77.8182V204.565H87.8373V194.545Z" fill="black"/>
<path d="M107.292 194.545H97.2727V204.565H107.292V194.545Z" fill="black"/>
<path d="M117.019 194.545H107V204.565H117.019V194.545Z" fill="black"/>
<path d="M155.928 194.545H145.909V204.565H155.928V194.545Z" fill="black"/>
<path d="M175.383 194.545H165.364V204.565H175.383V194.545Z" fill="black"/>
<path d="M204.565 194.545H194.545V204.565H204.565V194.545Z" fill="black"/>
<path d="M243.474 194.545H233.455V204.565H243.474V194.545Z" fill="black"/>
<path d="M272.656 194.545H262.636V204.565H272.656V194.545Z" fill="black"/>
<path d="M282.383 194.545H272.364V204.565H282.383V194.545Z" fill="black"/>
<path d="M29.4737 204.273H19.4546V214.292H29.4737V204.273Z" fill="black"/>
<path d="M58.6554 204.273H48.6364V214.292H58.6554V204.273Z" fill="black"/>
<path d="M68.3827 204.273H58.3636V214.292H68.3827V204.273Z" fill="black"/>
<path d="M126.746 204.273H116.727V214.292H126.746V204.273Z" fill="black"/>
<path d="M155.928 204.273H145.909V214.292H155.928V204.273Z" fill="black"/>
<path d="M165.655 204.273H155.636V214.292H165.655V204.273Z" fill="black"/>
<path d="M185.11 204.273H175.091V214.292H185.11V204.273Z" fill="black"/>
<path d="M214.292 204.273H204.273V214.292H214.292V204.273Z" fill="black"/>
<path d="M224.019 204.273H214V214.292H224.019V204.273Z" fill="black"/>
<path d="M243.474 204.273H233.455V214.292H243.474V204.273Z" fill="black"/>
<path d="M253.201 204.273H243.182V214.292H253.201V204.273Z" fill="black"/>
<path d="M292.11 204.273H282.091V214.292H292.11V204.273Z" fill="black"/>
<path d="M301.837 204.273H291.818V214.292H301.837V204.273Z" fill="black"/>
<path d="M29.4737 214H19.4546V224.019H29.4737V214Z" fill="black"/>
<path d="M48.9283 214H38.9092V224.019H48.9283V214Z" fill="black"/>
<path d="M58.6554 214H48.6364V224.019H58.6554V214Z" fill="black"/>
<path d="M78.11 214H68.0909V224.019H78.11V214Z" fill="black"/>
<path d="M87.8373 214H77.8182V224.019H87.8373V214Z" fill="black"/>
<path d="M107.292 214H97.2727V224.019H107.292V214Z" fill="black"/>
<path d="M146.201 214H136.182V224.019H146.201V214Z" fill="black"/>
<path d="M165.655 214H155.636V224.019H165.655V214Z" fill="black"/>
<path d="M185.11 214H175.091V224.019H185.11V214Z" fill="black"/>
<path d="M224.019 214H214V224.019H224.019V214Z" fill="black"/>
<path d="M233.747 214H223.727V224.019H233.747V214Z" fill="black"/>
<path d="M243.474 214H233.455V224.019H243.474V214Z" fill="black"/>
<path d="M253.201 214H243.182V224.019H253.201V214Z" fill="black"/>
<path d="M262.928 214H252.909V224.019H262.928V214Z" fill="black"/>
<path d="M282.383 214H272.364V224.019H282.383V214Z" fill="black"/>
<path d="M107.292 223.727H97.2727V233.746H107.292V223.727Z" fill="black"/>
<path d="M126.746 223.727H116.727V233.746H126.746V223.727Z" fill="black"/>
<path d="M136.474 223.727H126.455V233.746H136.474V223.727Z" fill="black"/>
<path d="M146.201 223.727H136.182V233.746H146.201V223.727Z" fill="black"/>
<path d="M155.928 223.727H145.909V233.746H155.928V223.727Z" fill="black"/>
<path d="M165.655 223.727H155.636V233.746H165.655V223.727Z" fill="black"/>
<path d="M175.383 223.727H165.364V233.746H175.383V223.727Z" fill="black"/>
<path d="M204.565 223.727H194.545V233.746H204.565V223.727Z" fill="black"/>
<path d="M214.292 223.727H204.273V233.746H214.292V223.727Z" fill="black"/>
<path d="M224.019 223.727H214V233.746H224.019V223.727Z" fill="black"/>
<path d="M262.928 223.727H252.909V233.746H262.928V223.727Z" fill="black"/>
<path d="M272.656 223.727H262.636V233.746H272.656V223.727Z" fill="black"/>
<path d="M292.11 223.727H282.091V233.746H292.11V223.727Z" fill="black"/>
<path d="M301.837 223.727H291.818V233.746H301.837V223.727Z" fill="black"/>
<path d="M136.474 233.455H126.455V243.474H136.474V233.455Z" fill="black"/>
<path d="M155.928 233.455H145.909V243.474H155.928V233.455Z" fill="black"/>
<path d="M165.655 233.455H155.636V243.474H165.655V233.455Z" fill="black"/>
<path d="M175.383 233.455H165.364V243.474H175.383V233.455Z" fill="black"/>
<path d="M204.565 233.455H194.545V243.474H204.565V233.455Z" fill="black"/>
<path d="M214.292 233.455H204.273V243.474H214.292V233.455Z" fill="black"/>
<path d="M224.019 233.455H214V243.474H224.019V233.455Z" fill="black"/>
<path d="M243.474 233.455H233.455V243.474H243.474V233.455Z" fill="black"/>
<path d="M262.928 233.455H252.909V243.474H262.928V233.455Z" fill="black"/>
<path d="M126.746 243.182H116.727V253.201H126.746V243.182Z" fill="black"/>
<path d="M165.655 243.182H155.636V253.201H165.655V243.182Z" fill="black"/>
<path d="M175.383 243.182H165.364V253.201H175.383V243.182Z" fill="black"/>
<path d="M214.292 243.182H204.273V253.201H214.292V243.182Z" fill="black"/>
<path d="M224.019 243.182H214V253.201H224.019V243.182Z" fill="black"/>
<path d="M262.928 243.182H252.909V253.201H262.928V243.182Z" fill="black"/>
<path d="M272.656 243.182H262.636V253.201H272.656V243.182Z" fill="black"/>
<path d="M292.11 243.182H282.091V253.201H292.11V243.182Z" fill="black"/>
<path d="M107.292 252.909H97.2727V262.928H107.292V252.909Z" fill="black"/>
<path d="M146.201 252.909H136.182V262.928H146.201V252.909Z" fill="black"/>
<path d="M155.928 252.909H145.909V262.928H155.928V252.909Z" fill="black"/>
<path d="M165.655 252.909H155.636V262.928H165.655V252.909Z" fill="black"/>
<path d="M175.383 252.909H165.364V262.928H175.383V252.909Z" fill="black"/>
<path d="M194.837 252.909H184.818V262.928H194.837V252.909Z" fill="black"/>
<path d="M204.565 252.909H194.545V262.928H204.565V252.909Z" fill="black"/>
<path d="M224.019 252.909H214V262.928H224.019V252.909Z" fill="black"/>
<path d="M233.747 252.909H223.727V262.928H233.747V252.909Z" fill="black"/>
<path d="M243.474 252.909H233.455V262.928H243.474V252.909Z" fill="black"/>
<path d="M253.201 252.909H243.182V262.928H253.201V252.909Z" fill="black"/>
<path d="M262.928 252.909H252.909V262.928H262.928V252.909Z" fill="black"/>
<path d="M272.656 252.909H262.636V262.928H272.656V252.909Z" fill="black"/>
<path d="M282.383 252.909H272.364V262.928H282.383V252.909Z" fill="black"/>
<path d="M301.837 252.909H291.818V262.928H301.837V252.909Z" fill="black"/>
<path d="M107.292 262.636H97.2727V272.655H107.292V262.636Z" fill="black"/>
<path d="M117.019 262.636H107V272.655H117.019V262.636Z" fill="black"/>
<path d="M126.746 262.636H116.727V272.655H126.746V262.636Z" fill="black"/>
<path d="M136.474 262.636H126.455V272.655H136.474V262.636Z" fill="black"/>
<path d="M165.655 262.636H155.636V272.655H165.655V262.636Z" fill="black"/>
<path d="M185.11 262.636H175.091V272.655H185.11V262.636Z" fill="black"/>
<path d="M214.292 262.636H204.273V272.655H214.292V262.636Z" fill="black"/>
<path d="M224.019 262.636H214V272.655H224.019V262.636Z" fill="black"/>
<path d="M233.747 262.636H223.727V272.655H233.747V262.636Z" fill="black"/>
<path d="M253.201 262.636H243.182V272.655H253.201V262.636Z" fill="black"/>
<path d="M272.656 262.636H262.636V272.655H272.656V262.636Z" fill="black"/>
<path d="M282.383 262.636H272.364V272.655H282.383V262.636Z" fill="black"/>
<path d="M107.292 272.364H97.2727V282.383H107.292V272.364Z" fill="black"/>
<path d="M117.019 272.364H107V282.383H117.019V272.364Z" fill="black"/>
<path d="M146.201 272.364H136.182V282.383H146.201V272.364Z" fill="black"/>
<path d="M165.655 272.364H155.636V282.383H165.655V272.364Z" fill="black"/>
<path d="M185.11 272.364H175.091V282.383H185.11V272.364Z" fill="black"/>
<path d="M204.565 272.364H194.545V282.383H204.565V272.364Z" fill="black"/>
<path d="M214.292 272.364H204.273V282.383H214.292V272.364Z" fill="black"/>
<path d="M224.019 272.364H214V282.383H224.019V272.364Z" fill="black"/>
<path d="M233.747 272.364H223.727V282.383H233.747V272.364Z" fill="black"/>
<path d="M243.474 272.364H233.455V282.383H243.474V272.364Z" fill="black"/>
<path d="M253.201 272.364H243.182V282.383H253.201V272.364Z" fill="black"/>
<path d="M262.928 272.364H252.909V282.383H262.928V272.364Z" fill="black"/>
<path d="M272.656 272.364H262.636V282.383H272.656V272.364Z" fill="black"/>
<path d="M282.383 272.364H272.364V282.383H282.383V272.364Z" fill="black"/>
<path d="M292.11 272.364H282.091V282.383H292.11V272.364Z" fill="black"/>
<path d="M126.746 282.091H116.727V292.11H126.746V282.091Z" fill="black"/>
<path d="M155.928 282.091H145.909V292.11H155.928V282.091Z" fill="black"/>
<path d="M165.655 282.091H155.636V292.11H165.655V282.091Z" fill="black"/>
<path d="M175.383 282.091H165.364V292.11H175.383V282.091Z" fill="black"/>
<path d="M185.11 282.091H175.091V292.11H185.11V282.091Z" fill="black"/>
<path d="M214.292 282.091H204.273V292.11H214.292V282.091Z" fill="black"/>
<path d="M224.019 282.091H214V292.11H224.019V282.091Z" fill="black"/>
<path d="M262.928 282.091H252.909V292.11H262.928V282.091Z" fill="black"/>
<path d="M272.656 282.091H262.636V292.11H272.656V282.091Z" fill="black"/>
<path d="M292.11 282.091H282.091V292.11H292.11V282.091Z" fill="black"/>
<path d="M126.746 291.818H116.727V301.837H126.746V291.818Z" fill="black"/>
<path d="M175.383 291.818H165.364V301.837H175.383V291.818Z" fill="black"/>
<path d="M185.11 291.818H175.091V301.837H185.11V291.818Z" fill="black"/>
<path d="M194.837 291.818H184.818V301.837H194.837V291.818Z" fill="black"/>
<path d="M214.292 291.818H204.273V301.837H214.292V291.818Z" fill="black"/>
<path d="M262.928 291.818H252.909V301.837H262.928V291.818Z" fill="black"/>
<path d="M19.4546 19.4545V87.5454H87.5455V19.4545H19.4546ZM77.8182 77.8182H29.1819V29.1818H77.8182V77.8182Z" fill="black"/>
<path d="M233.455 19.4545V87.5454H301.545V19.4545H233.455ZM291.818 77.8182H243.182V29.1818H291.818V77.8182Z" fill="black"/>
<path d="M19.4546 233.455V301.546H87.5455V233.455H19.4546ZM77.8182 291.818H29.1819V243.182H77.8182V291.818Z" fill="black"/>
<path d="M68.091 38.9091H38.9092V68.0909H68.091V38.9091Z" fill="black"/>
<path d="M282.091 38.9091H252.909V68.0909H282.091V38.9091Z" fill="black"/>
<path d="M68.091 252.909H38.9092V282.091H68.091V252.909Z" fill="black"/>
</g>
<defs>
<clipPath id="clip0_1329_30028">
<rect width="321" height="321" fill="white"/>
</clipPath>
</defs>
</svg>
