<svg width="114" height="114" viewBox="0 0 114 114" fill="none" xmlns="http://www.w3.org/2000/svg">
<g clip-path="url(#clip0_1328_26766)">
<path d="M114 0H0V114H114V0Z" fill="white"/>
<path d="M38.1037 6.90909H34.5455V10.4673H38.1037V6.90909Z" fill="black"/>
<path d="M58.8309 6.90909H55.2728V10.4673H58.8309V6.90909Z" fill="black"/>
<path d="M65.74 6.90909H62.1818V10.4673H65.74V6.90909Z" fill="black"/>
<path d="M69.1946 6.90909H65.6364V10.4673H69.1946V6.90909Z" fill="black"/>
<path d="M72.6491 6.90909H69.0909V10.4673H72.6491V6.90909Z" fill="black"/>
<path d="M79.5582 6.90909H76.0001V10.4673H79.5582V6.90909Z" fill="black"/>
<path d="M38.1037 10.3636H34.5455V13.9218H38.1037V10.3636Z" fill="black"/>
<path d="M41.5582 10.3636H38.0001V13.9218H41.5582V10.3636Z" fill="black"/>
<path d="M45.0128 10.3636H41.4546V13.9218H45.0128V10.3636Z" fill="black"/>
<path d="M58.8309 10.3636H55.2728V13.9218H58.8309V10.3636Z" fill="black"/>
<path d="M65.74 10.3636H62.1818V13.9218H65.74V10.3636Z" fill="black"/>
<path d="M69.1946 10.3636H65.6364V13.9218H69.1946V10.3636Z" fill="black"/>
<path d="M76.1037 10.3636H72.5455V13.9218H76.1037V10.3636Z" fill="black"/>
<path d="M38.1037 13.8182H34.5455V17.3764H38.1037V13.8182Z" fill="black"/>
<path d="M48.4673 13.8182H44.9091V17.3764H48.4673V13.8182Z" fill="black"/>
<path d="M65.74 13.8182H62.1818V17.3764H65.74V13.8182Z" fill="black"/>
<path d="M72.6491 13.8182H69.0909V17.3764H72.6491V13.8182Z" fill="black"/>
<path d="M76.1037 13.8182H72.5455V17.3764H76.1037V13.8182Z" fill="black"/>
<path d="M79.5582 13.8182H76.0001V17.3764H79.5582V13.8182Z" fill="black"/>
<path d="M45.0128 17.2727H41.4546V20.8309H45.0128V17.2727Z" fill="black"/>
<path d="M48.4673 17.2727H44.9091V20.8309H48.4673V17.2727Z" fill="black"/>
<path d="M55.3764 17.2727H51.8182V20.8309H55.3764V17.2727Z" fill="black"/>
<path d="M58.8309 17.2727H55.2728V20.8309H58.8309V17.2727Z" fill="black"/>
<path d="M62.2855 17.2727H58.7273V20.8309H62.2855V17.2727Z" fill="black"/>
<path d="M65.74 17.2727H62.1818V20.8309H65.74V17.2727Z" fill="black"/>
<path d="M69.1946 17.2727H65.6364V20.8309H69.1946V17.2727Z" fill="black"/>
<path d="M76.1037 17.2727H72.5455V20.8309H76.1037V17.2727Z" fill="black"/>
<path d="M45.0128 20.7273H41.4546V24.2854H45.0128V20.7273Z" fill="black"/>
<path d="M48.4673 20.7273H44.9091V24.2854H48.4673V20.7273Z" fill="black"/>
<path d="M51.9218 20.7273H48.3636V24.2854H51.9218V20.7273Z" fill="black"/>
<path d="M65.74 20.7273H62.1818V24.2854H65.74V20.7273Z" fill="black"/>
<path d="M72.6491 20.7273H69.0909V24.2854H72.6491V20.7273Z" fill="black"/>
<path d="M76.1037 20.7273H72.5455V24.2854H76.1037V20.7273Z" fill="black"/>
<path d="M38.1037 24.1818H34.5455V27.74H38.1037V24.1818Z" fill="black"/>
<path d="M41.5582 24.1818H38.0001V27.74H41.5582V24.1818Z" fill="black"/>
<path d="M51.9218 24.1818H48.3636V27.74H51.9218V24.1818Z" fill="black"/>
<path d="M58.8309 24.1818H55.2728V27.74H58.8309V24.1818Z" fill="black"/>
<path d="M62.2855 24.1818H58.7273V27.74H62.2855V24.1818Z" fill="black"/>
<path d="M65.74 24.1818H62.1818V27.74H65.74V24.1818Z" fill="black"/>
<path d="M72.6491 24.1818H69.0909V27.74H72.6491V24.1818Z" fill="black"/>
<path d="M38.1037 27.6364H34.5455V31.1945H38.1037V27.6364Z" fill="black"/>
<path d="M45.0128 27.6364H41.4546V31.1945H45.0128V27.6364Z" fill="black"/>
<path d="M51.9218 27.6364H48.3636V31.1945H51.9218V27.6364Z" fill="black"/>
<path d="M58.8309 27.6364H55.2728V31.1945H58.8309V27.6364Z" fill="black"/>
<path d="M65.74 27.6364H62.1818V31.1945H65.74V27.6364Z" fill="black"/>
<path d="M72.6491 27.6364H69.0909V31.1945H72.6491V27.6364Z" fill="black"/>
<path d="M79.5582 27.6364H76.0001V31.1945H79.5582V27.6364Z" fill="black"/>
<path d="M38.1037 31.0909H34.5455V34.6491H38.1037V31.0909Z" fill="black"/>
<path d="M41.5582 31.0909H38.0001V34.6491H41.5582V31.0909Z" fill="black"/>
<path d="M45.0128 31.0909H41.4546V34.6491H45.0128V31.0909Z" fill="black"/>
<path d="M48.4673 31.0909H44.9091V34.6491H48.4673V31.0909Z" fill="black"/>
<path d="M51.9218 31.0909H48.3636V34.6491H51.9218V31.0909Z" fill="black"/>
<path d="M55.3764 31.0909H51.8182V34.6491H55.3764V31.0909Z" fill="black"/>
<path d="M58.8309 31.0909H55.2728V34.6491H58.8309V31.0909Z" fill="black"/>
<path d="M62.2855 31.0909H58.7273V34.6491H62.2855V31.0909Z" fill="black"/>
<path d="M65.74 31.0909H62.1818V34.6491H65.74V31.0909Z" fill="black"/>
<path d="M76.1037 31.0909H72.5455V34.6491H76.1037V31.0909Z" fill="black"/>
<path d="M17.3764 34.5454H13.8182V38.1036H17.3764V34.5454Z" fill="black"/>
<path d="M20.8309 34.5454H17.2728V38.1036H20.8309V34.5454Z" fill="black"/>
<path d="M24.2855 34.5454H20.7273V38.1036H24.2855V34.5454Z" fill="black"/>
<path d="M31.1946 34.5454H27.6364V38.1036H31.1946V34.5454Z" fill="black"/>
<path d="M38.1037 34.5454H34.5455V38.1036H38.1037V34.5454Z" fill="black"/>
<path d="M41.5582 34.5454H38.0001V38.1036H41.5582V34.5454Z" fill="black"/>
<path d="M45.0128 34.5454H41.4546V38.1036H45.0128V34.5454Z" fill="black"/>
<path d="M58.8309 34.5454H55.2728V38.1036H58.8309V34.5454Z" fill="black"/>
<path d="M62.2855 34.5454H58.7273V38.1036H62.2855V34.5454Z" fill="black"/>
<path d="M65.74 34.5454H62.1818V38.1036H65.74V34.5454Z" fill="black"/>
<path d="M72.6491 34.5454H69.0909V38.1036H72.6491V34.5454Z" fill="black"/>
<path d="M83.0128 34.5454H79.4546V38.1036H83.0128V34.5454Z" fill="black"/>
<path d="M86.4673 34.5454H82.9091V38.1036H86.4673V34.5454Z" fill="black"/>
<path d="M89.9218 34.5454H86.3636V38.1036H89.9218V34.5454Z" fill="black"/>
<path d="M100.285 34.5454H96.7273V38.1036H100.285V34.5454Z" fill="black"/>
<path d="M103.74 34.5454H100.182V38.1036H103.74V34.5454Z" fill="black"/>
<path d="M107.195 34.5454H103.636V38.1036H107.195V34.5454Z" fill="black"/>
<path d="M13.9218 38H10.3636V41.5582H13.9218V38Z" fill="black"/>
<path d="M20.8309 38H17.2728V41.5582H20.8309V38Z" fill="black"/>
<path d="M34.6491 38H31.0909V41.5582H34.6491V38Z" fill="black"/>
<path d="M41.5582 38H38.0001V41.5582H41.5582V38Z" fill="black"/>
<path d="M45.0128 38H41.4546V41.5582H45.0128V38Z" fill="black"/>
<path d="M48.4673 38H44.9091V41.5582H48.4673V38Z" fill="black"/>
<path d="M62.2855 38H58.7273V41.5582H62.2855V38Z" fill="black"/>
<path d="M65.74 38H62.1818V41.5582H65.74V38Z" fill="black"/>
<path d="M69.1946 38H65.6364V41.5582H69.1946V38Z" fill="black"/>
<path d="M83.0128 38H79.4546V41.5582H83.0128V38Z" fill="black"/>
<path d="M89.9218 38H86.3636V41.5582H89.9218V38Z" fill="black"/>
<path d="M93.3764 38H89.8182V41.5582H93.3764V38Z" fill="black"/>
<path d="M96.8309 38H93.2728V41.5582H96.8309V38Z" fill="black"/>
<path d="M100.285 38H96.7273V41.5582H100.285V38Z" fill="black"/>
<path d="M107.195 38H103.636V41.5582H107.195V38Z" fill="black"/>
<path d="M13.9218 41.4545H10.3636V45.0127H13.9218V41.4545Z" fill="black"/>
<path d="M20.8309 41.4545H17.2728V45.0127H20.8309V41.4545Z" fill="black"/>
<path d="M24.2855 41.4545H20.7273V45.0127H24.2855V41.4545Z" fill="black"/>
<path d="M27.74 41.4545H24.1818V45.0127H27.74V41.4545Z" fill="black"/>
<path d="M31.1946 41.4545H27.6364V45.0127H31.1946V41.4545Z" fill="black"/>
<path d="M34.6491 41.4545H31.0909V45.0127H34.6491V41.4545Z" fill="black"/>
<path d="M38.1037 41.4545H34.5455V45.0127H38.1037V41.4545Z" fill="black"/>
<path d="M45.0128 41.4545H41.4546V45.0127H45.0128V41.4545Z" fill="black"/>
<path d="M48.4673 41.4545H44.9091V45.0127H48.4673V41.4545Z" fill="black"/>
<path d="M51.9218 41.4545H48.3636V45.0127H51.9218V41.4545Z" fill="black"/>
<path d="M55.3764 41.4545H51.8182V45.0127H55.3764V41.4545Z" fill="black"/>
<path d="M58.8309 41.4545H55.2728V45.0127H58.8309V41.4545Z" fill="black"/>
<path d="M83.0128 41.4545H79.4546V45.0127H83.0128V41.4545Z" fill="black"/>
<path d="M86.4673 41.4545H82.9091V45.0127H86.4673V41.4545Z" fill="black"/>
<path d="M93.3764 41.4545H89.8182V45.0127H93.3764V41.4545Z" fill="black"/>
<path d="M100.285 41.4545H96.7273V45.0127H100.285V41.4545Z" fill="black"/>
<path d="M20.8309 44.9091H17.2728V48.4673H20.8309V44.9091Z" fill="black"/>
<path d="M34.6491 44.9091H31.0909V48.4673H34.6491V44.9091Z" fill="black"/>
<path d="M38.1037 44.9091H34.5455V48.4673H38.1037V44.9091Z" fill="black"/>
<path d="M41.5582 44.9091H38.0001V48.4673H41.5582V44.9091Z" fill="black"/>
<path d="M45.0128 44.9091H41.4546V48.4673H45.0128V44.9091Z" fill="black"/>
<path d="M48.4673 44.9091H44.9091V48.4673H48.4673V44.9091Z" fill="black"/>
<path d="M62.2855 44.9091H58.7273V48.4673H62.2855V44.9091Z" fill="black"/>
<path d="M69.1946 44.9091H65.6364V48.4673H69.1946V44.9091Z" fill="black"/>
<path d="M79.5582 44.9091H76.0001V48.4673H79.5582V44.9091Z" fill="black"/>
<path d="M83.0128 44.9091H79.4546V48.4673H83.0128V44.9091Z" fill="black"/>
<path d="M86.4673 44.9091H82.9091V48.4673H86.4673V44.9091Z" fill="black"/>
<path d="M96.8309 44.9091H93.2728V48.4673H96.8309V44.9091Z" fill="black"/>
<path d="M103.74 44.9091H100.182V48.4673H103.74V44.9091Z" fill="black"/>
<path d="M13.9218 48.3636H10.3636V51.9218H13.9218V48.3636Z" fill="black"/>
<path d="M17.3764 48.3636H13.8182V51.9218H17.3764V48.3636Z" fill="black"/>
<path d="M20.8309 48.3636H17.2728V51.9218H20.8309V48.3636Z" fill="black"/>
<path d="M24.2855 48.3636H20.7273V51.9218H24.2855V48.3636Z" fill="black"/>
<path d="M27.74 48.3636H24.1818V51.9218H27.74V48.3636Z" fill="black"/>
<path d="M31.1946 48.3636H27.6364V51.9218H31.1946V48.3636Z" fill="black"/>
<path d="M34.6491 48.3636H31.0909V51.9218H34.6491V48.3636Z" fill="black"/>
<path d="M38.1037 48.3636H34.5455V51.9218H38.1037V48.3636Z" fill="black"/>
<path d="M55.3764 48.3636H51.8182V51.9218H55.3764V48.3636Z" fill="black"/>
<path d="M58.8309 48.3636H55.2728V51.9218H58.8309V48.3636Z" fill="black"/>
<path d="M65.74 48.3636H62.1818V51.9218H65.74V48.3636Z" fill="black"/>
<path d="M76.1037 48.3636H72.5455V51.9218H76.1037V48.3636Z" fill="black"/>
<path d="M79.5582 48.3636H76.0001V51.9218H79.5582V48.3636Z" fill="black"/>
<path d="M83.0128 48.3636H79.4546V51.9218H83.0128V48.3636Z" fill="black"/>
<path d="M89.9218 48.3636H86.3636V51.9218H89.9218V48.3636Z" fill="black"/>
<path d="M100.285 48.3636H96.7273V51.9218H100.285V48.3636Z" fill="black"/>
<path d="M103.74 48.3636H100.182V51.9218H103.74V48.3636Z" fill="black"/>
<path d="M107.195 48.3636H103.636V51.9218H107.195V48.3636Z" fill="black"/>
<path d="M10.4673 51.8182H6.90912V55.3764H10.4673V51.8182Z" fill="black"/>
<path d="M17.3764 51.8182H13.8182V55.3764H17.3764V51.8182Z" fill="black"/>
<path d="M20.8309 51.8182H17.2728V55.3764H20.8309V51.8182Z" fill="black"/>
<path d="M27.74 51.8182H24.1818V55.3764H27.74V51.8182Z" fill="black"/>
<path d="M34.6491 51.8182H31.0909V55.3764H34.6491V51.8182Z" fill="black"/>
<path d="M41.5582 51.8182H38.0001V55.3764H41.5582V51.8182Z" fill="black"/>
<path d="M45.0128 51.8182H41.4546V55.3764H45.0128V51.8182Z" fill="black"/>
<path d="M51.9218 51.8182H48.3636V55.3764H51.9218V51.8182Z" fill="black"/>
<path d="M55.3764 51.8182H51.8182V55.3764H55.3764V51.8182Z" fill="black"/>
<path d="M62.2855 51.8182H58.7273V55.3764H62.2855V51.8182Z" fill="black"/>
<path d="M69.1946 51.8182H65.6364V55.3764H69.1946V51.8182Z" fill="black"/>
<path d="M72.6491 51.8182H69.0909V55.3764H72.6491V51.8182Z" fill="black"/>
<path d="M76.1037 51.8182H72.5455V55.3764H76.1037V51.8182Z" fill="black"/>
<path d="M79.5582 51.8182H76.0001V55.3764H79.5582V51.8182Z" fill="black"/>
<path d="M83.0128 51.8182H79.4546V55.3764H83.0128V51.8182Z" fill="black"/>
<path d="M86.4673 51.8182H82.9091V55.3764H86.4673V51.8182Z" fill="black"/>
<path d="M93.3764 51.8182H89.8182V55.3764H93.3764V51.8182Z" fill="black"/>
<path d="M96.8309 51.8182H93.2728V55.3764H96.8309V51.8182Z" fill="black"/>
<path d="M103.74 51.8182H100.182V55.3764H103.74V51.8182Z" fill="black"/>
<path d="M107.195 51.8182H103.636V55.3764H107.195V51.8182Z" fill="black"/>
<path d="M13.9218 55.2727H10.3636V58.8309H13.9218V55.2727Z" fill="black"/>
<path d="M24.2855 55.2727H20.7273V58.8309H24.2855V55.2727Z" fill="black"/>
<path d="M27.74 55.2727H24.1818V58.8309H27.74V55.2727Z" fill="black"/>
<path d="M31.1946 55.2727H27.6364V58.8309H31.1946V55.2727Z" fill="black"/>
<path d="M38.1037 55.2727H34.5455V58.8309H38.1037V55.2727Z" fill="black"/>
<path d="M41.5582 55.2727H38.0001V58.8309H41.5582V55.2727Z" fill="black"/>
<path d="M51.9218 55.2727H48.3636V58.8309H51.9218V55.2727Z" fill="black"/>
<path d="M69.1946 55.2727H65.6364V58.8309H69.1946V55.2727Z" fill="black"/>
<path d="M79.5582 55.2727H76.0001V58.8309H79.5582V55.2727Z" fill="black"/>
<path d="M89.9218 55.2727H86.3636V58.8309H89.9218V55.2727Z" fill="black"/>
<path d="M17.3764 58.7273H13.8182V62.2854H17.3764V58.7273Z" fill="black"/>
<path d="M24.2855 58.7273H20.7273V62.2854H24.2855V58.7273Z" fill="black"/>
<path d="M27.74 58.7273H24.1818V62.2854H27.74V58.7273Z" fill="black"/>
<path d="M34.6491 58.7273H31.0909V62.2854H34.6491V58.7273Z" fill="black"/>
<path d="M38.1037 58.7273H34.5455V62.2854H38.1037V58.7273Z" fill="black"/>
<path d="M41.5582 58.7273H38.0001V62.2854H41.5582V58.7273Z" fill="black"/>
<path d="M51.9218 58.7273H48.3636V62.2854H51.9218V58.7273Z" fill="black"/>
<path d="M55.3764 58.7273H51.8182V62.2854H55.3764V58.7273Z" fill="black"/>
<path d="M62.2855 58.7273H58.7273V62.2854H62.2855V58.7273Z" fill="black"/>
<path d="M69.1946 58.7273H65.6364V62.2854H69.1946V58.7273Z" fill="black"/>
<path d="M72.6491 58.7273H69.0909V62.2854H72.6491V58.7273Z" fill="black"/>
<path d="M93.3764 58.7273H89.8182V62.2854H93.3764V58.7273Z" fill="black"/>
<path d="M96.8309 58.7273H93.2728V62.2854H96.8309V58.7273Z" fill="black"/>
<path d="M10.4673 62.1818H6.90912V65.74H10.4673V62.1818Z" fill="black"/>
<path d="M13.9218 62.1818H10.3636V65.74H13.9218V62.1818Z" fill="black"/>
<path d="M17.3764 62.1818H13.8182V65.74H17.3764V62.1818Z" fill="black"/>
<path d="M27.74 62.1818H24.1818V65.74H27.74V62.1818Z" fill="black"/>
<path d="M31.1946 62.1818H27.6364V65.74H31.1946V62.1818Z" fill="black"/>
<path d="M34.6491 62.1818H31.0909V65.74H34.6491V62.1818Z" fill="black"/>
<path d="M38.1037 62.1818H34.5455V65.74H38.1037V62.1818Z" fill="black"/>
<path d="M41.5582 62.1818H38.0001V65.74H41.5582V62.1818Z" fill="black"/>
<path d="M45.0128 62.1818H41.4546V65.74H45.0128V62.1818Z" fill="black"/>
<path d="M48.4673 62.1818H44.9091V65.74H48.4673V62.1818Z" fill="black"/>
<path d="M51.9218 62.1818H48.3636V65.74H51.9218V62.1818Z" fill="black"/>
<path d="M58.8309 62.1818H55.2728V65.74H58.8309V62.1818Z" fill="black"/>
<path d="M69.1946 62.1818H65.6364V65.74H69.1946V62.1818Z" fill="black"/>
<path d="M72.6491 62.1818H69.0909V65.74H72.6491V62.1818Z" fill="black"/>
<path d="M89.9218 62.1818H86.3636V65.74H89.9218V62.1818Z" fill="black"/>
<path d="M93.3764 62.1818H89.8182V65.74H93.3764V62.1818Z" fill="black"/>
<path d="M96.8309 62.1818H93.2728V65.74H96.8309V62.1818Z" fill="black"/>
<path d="M100.285 62.1818H96.7273V65.74H100.285V62.1818Z" fill="black"/>
<path d="M103.74 62.1818H100.182V65.74H103.74V62.1818Z" fill="black"/>
<path d="M107.195 62.1818H103.636V65.74H107.195V62.1818Z" fill="black"/>
<path d="M10.4673 65.6364H6.90912V69.1946H10.4673V65.6364Z" fill="black"/>
<path d="M13.9218 65.6364H10.3636V69.1946H13.9218V65.6364Z" fill="black"/>
<path d="M17.3764 65.6364H13.8182V69.1946H17.3764V65.6364Z" fill="black"/>
<path d="M24.2855 65.6364H20.7273V69.1946H24.2855V65.6364Z" fill="black"/>
<path d="M27.74 65.6364H24.1818V69.1946H27.74V65.6364Z" fill="black"/>
<path d="M34.6491 65.6364H31.0909V69.1946H34.6491V65.6364Z" fill="black"/>
<path d="M38.1037 65.6364H34.5455V69.1946H38.1037V65.6364Z" fill="black"/>
<path d="M45.0128 65.6364H41.4546V69.1946H45.0128V65.6364Z" fill="black"/>
<path d="M62.2855 65.6364H58.7273V69.1946H62.2855V65.6364Z" fill="black"/>
<path d="M72.6491 65.6364H69.0909V69.1946H72.6491V65.6364Z" fill="black"/>
<path d="M76.1037 65.6364H72.5455V69.1946H76.1037V65.6364Z" fill="black"/>
<path d="M79.5582 65.6364H76.0001V69.1946H79.5582V65.6364Z" fill="black"/>
<path d="M83.0128 65.6364H79.4546V69.1946H83.0128V65.6364Z" fill="black"/>
<path d="M86.4673 65.6364H82.9091V69.1946H86.4673V65.6364Z" fill="black"/>
<path d="M89.9218 65.6364H86.3636V69.1946H89.9218V65.6364Z" fill="black"/>
<path d="M93.3764 65.6364H89.8182V69.1946H93.3764V65.6364Z" fill="black"/>
<path d="M100.285 65.6364H96.7273V69.1946H100.285V65.6364Z" fill="black"/>
<path d="M103.74 65.6364H100.182V69.1946H103.74V65.6364Z" fill="black"/>
<path d="M107.195 65.6364H103.636V69.1946H107.195V65.6364Z" fill="black"/>
<path d="M10.4673 69.0909H6.90912V72.6491H10.4673V69.0909Z" fill="black"/>
<path d="M20.8309 69.0909H17.2728V72.6491H20.8309V69.0909Z" fill="black"/>
<path d="M24.2855 69.0909H20.7273V72.6491H24.2855V69.0909Z" fill="black"/>
<path d="M27.74 69.0909H24.1818V72.6491H27.74V69.0909Z" fill="black"/>
<path d="M31.1946 69.0909H27.6364V72.6491H31.1946V69.0909Z" fill="black"/>
<path d="M38.1037 69.0909H34.5455V72.6491H38.1037V69.0909Z" fill="black"/>
<path d="M41.5582 69.0909H38.0001V72.6491H41.5582V69.0909Z" fill="black"/>
<path d="M55.3764 69.0909H51.8182V72.6491H55.3764V69.0909Z" fill="black"/>
<path d="M62.2855 69.0909H58.7273V72.6491H62.2855V69.0909Z" fill="black"/>
<path d="M72.6491 69.0909H69.0909V72.6491H72.6491V69.0909Z" fill="black"/>
<path d="M86.4673 69.0909H82.9091V72.6491H86.4673V69.0909Z" fill="black"/>
<path d="M96.8309 69.0909H93.2728V72.6491H96.8309V69.0909Z" fill="black"/>
<path d="M100.285 69.0909H96.7273V72.6491H100.285V69.0909Z" fill="black"/>
<path d="M10.4673 72.5454H6.90912V76.1036H10.4673V72.5454Z" fill="black"/>
<path d="M20.8309 72.5454H17.2728V76.1036H20.8309V72.5454Z" fill="black"/>
<path d="M24.2855 72.5454H20.7273V76.1036H24.2855V72.5454Z" fill="black"/>
<path d="M45.0128 72.5454H41.4546V76.1036H45.0128V72.5454Z" fill="black"/>
<path d="M55.3764 72.5454H51.8182V76.1036H55.3764V72.5454Z" fill="black"/>
<path d="M58.8309 72.5454H55.2728V76.1036H58.8309V72.5454Z" fill="black"/>
<path d="M65.74 72.5454H62.1818V76.1036H65.74V72.5454Z" fill="black"/>
<path d="M76.1037 72.5454H72.5455V76.1036H76.1037V72.5454Z" fill="black"/>
<path d="M79.5582 72.5454H76.0001V76.1036H79.5582V72.5454Z" fill="black"/>
<path d="M86.4673 72.5454H82.9091V76.1036H86.4673V72.5454Z" fill="black"/>
<path d="M89.9218 72.5454H86.3636V76.1036H89.9218V72.5454Z" fill="black"/>
<path d="M103.74 72.5454H100.182V76.1036H103.74V72.5454Z" fill="black"/>
<path d="M107.195 72.5454H103.636V76.1036H107.195V72.5454Z" fill="black"/>
<path d="M10.4673 76H6.90912V79.5582H10.4673V76Z" fill="black"/>
<path d="M17.3764 76H13.8182V79.5582H17.3764V76Z" fill="black"/>
<path d="M20.8309 76H17.2728V79.5582H20.8309V76Z" fill="black"/>
<path d="M27.74 76H24.1818V79.5582H27.74V76Z" fill="black"/>
<path d="M31.1946 76H27.6364V79.5582H31.1946V76Z" fill="black"/>
<path d="M38.1037 76H34.5455V79.5582H38.1037V76Z" fill="black"/>
<path d="M51.9218 76H48.3636V79.5582H51.9218V76Z" fill="black"/>
<path d="M58.8309 76H55.2728V79.5582H58.8309V76Z" fill="black"/>
<path d="M65.74 76H62.1818V79.5582H65.74V76Z" fill="black"/>
<path d="M79.5582 76H76.0001V79.5582H79.5582V76Z" fill="black"/>
<path d="M83.0128 76H79.4546V79.5582H83.0128V76Z" fill="black"/>
<path d="M86.4673 76H82.9091V79.5582H86.4673V76Z" fill="black"/>
<path d="M89.9218 76H86.3636V79.5582H89.9218V76Z" fill="black"/>
<path d="M93.3764 76H89.8182V79.5582H93.3764V76Z" fill="black"/>
<path d="M100.285 76H96.7273V79.5582H100.285V76Z" fill="black"/>
<path d="M38.1037 79.4545H34.5455V83.0127H38.1037V79.4545Z" fill="black"/>
<path d="M45.0128 79.4545H41.4546V83.0127H45.0128V79.4545Z" fill="black"/>
<path d="M48.4673 79.4545H44.9091V83.0127H48.4673V79.4545Z" fill="black"/>
<path d="M51.9218 79.4545H48.3636V83.0127H51.9218V79.4545Z" fill="black"/>
<path d="M55.3764 79.4545H51.8182V83.0127H55.3764V79.4545Z" fill="black"/>
<path d="M58.8309 79.4545H55.2728V83.0127H58.8309V79.4545Z" fill="black"/>
<path d="M62.2855 79.4545H58.7273V83.0127H62.2855V79.4545Z" fill="black"/>
<path d="M72.6491 79.4545H69.0909V83.0127H72.6491V79.4545Z" fill="black"/>
<path d="M76.1037 79.4545H72.5455V83.0127H76.1037V79.4545Z" fill="black"/>
<path d="M79.5582 79.4545H76.0001V83.0127H79.5582V79.4545Z" fill="black"/>
<path d="M93.3764 79.4545H89.8182V83.0127H93.3764V79.4545Z" fill="black"/>
<path d="M96.8309 79.4545H93.2728V83.0127H96.8309V79.4545Z" fill="black"/>
<path d="M103.74 79.4545H100.182V83.0127H103.74V79.4545Z" fill="black"/>
<path d="M107.195 79.4545H103.636V83.0127H107.195V79.4545Z" fill="black"/>
<path d="M48.4673 82.9091H44.9091V86.4673H48.4673V82.9091Z" fill="black"/>
<path d="M55.3764 82.9091H51.8182V86.4673H55.3764V82.9091Z" fill="black"/>
<path d="M58.8309 82.9091H55.2728V86.4673H58.8309V82.9091Z" fill="black"/>
<path d="M62.2855 82.9091H58.7273V86.4673H62.2855V82.9091Z" fill="black"/>
<path d="M72.6491 82.9091H69.0909V86.4673H72.6491V82.9091Z" fill="black"/>
<path d="M76.1037 82.9091H72.5455V86.4673H76.1037V82.9091Z" fill="black"/>
<path d="M79.5582 82.9091H76.0001V86.4673H79.5582V82.9091Z" fill="black"/>
<path d="M86.4673 82.9091H82.9091V86.4673H86.4673V82.9091Z" fill="black"/>
<path d="M93.3764 82.9091H89.8182V86.4673H93.3764V82.9091Z" fill="black"/>
<path d="M45.0128 86.3636H41.4546V89.9218H45.0128V86.3636Z" fill="black"/>
<path d="M58.8309 86.3636H55.2728V89.9218H58.8309V86.3636Z" fill="black"/>
<path d="M62.2855 86.3636H58.7273V89.9218H62.2855V86.3636Z" fill="black"/>
<path d="M76.1037 86.3636H72.5455V89.9218H76.1037V86.3636Z" fill="black"/>
<path d="M79.5582 86.3636H76.0001V89.9218H79.5582V86.3636Z" fill="black"/>
<path d="M93.3764 86.3636H89.8182V89.9218H93.3764V86.3636Z" fill="black"/>
<path d="M96.8309 86.3636H93.2728V89.9218H96.8309V86.3636Z" fill="black"/>
<path d="M103.74 86.3636H100.182V89.9218H103.74V86.3636Z" fill="black"/>
<path d="M38.1037 89.8182H34.5455V93.3764H38.1037V89.8182Z" fill="black"/>
<path d="M51.9218 89.8182H48.3636V93.3764H51.9218V89.8182Z" fill="black"/>
<path d="M55.3764 89.8182H51.8182V93.3764H55.3764V89.8182Z" fill="black"/>
<path d="M58.8309 89.8182H55.2728V93.3764H58.8309V89.8182Z" fill="black"/>
<path d="M62.2855 89.8182H58.7273V93.3764H62.2855V89.8182Z" fill="black"/>
<path d="M69.1946 89.8182H65.6364V93.3764H69.1946V89.8182Z" fill="black"/>
<path d="M72.6491 89.8182H69.0909V93.3764H72.6491V89.8182Z" fill="black"/>
<path d="M79.5582 89.8182H76.0001V93.3764H79.5582V89.8182Z" fill="black"/>
<path d="M83.0128 89.8182H79.4546V93.3764H83.0128V89.8182Z" fill="black"/>
<path d="M86.4673 89.8182H82.9091V93.3764H86.4673V89.8182Z" fill="black"/>
<path d="M89.9218 89.8182H86.3636V93.3764H89.9218V89.8182Z" fill="black"/>
<path d="M93.3764 89.8182H89.8182V93.3764H93.3764V89.8182Z" fill="black"/>
<path d="M96.8309 89.8182H93.2728V93.3764H96.8309V89.8182Z" fill="black"/>
<path d="M100.285 89.8182H96.7273V93.3764H100.285V89.8182Z" fill="black"/>
<path d="M107.195 89.8182H103.636V93.3764H107.195V89.8182Z" fill="black"/>
<path d="M38.1037 93.2727H34.5455V96.8309H38.1037V93.2727Z" fill="black"/>
<path d="M41.5582 93.2727H38.0001V96.8309H41.5582V93.2727Z" fill="black"/>
<path d="M45.0128 93.2727H41.4546V96.8309H45.0128V93.2727Z" fill="black"/>
<path d="M48.4673 93.2727H44.9091V96.8309H48.4673V93.2727Z" fill="black"/>
<path d="M58.8309 93.2727H55.2728V96.8309H58.8309V93.2727Z" fill="black"/>
<path d="M65.74 93.2727H62.1818V96.8309H65.74V93.2727Z" fill="black"/>
<path d="M76.1037 93.2727H72.5455V96.8309H76.1037V93.2727Z" fill="black"/>
<path d="M79.5582 93.2727H76.0001V96.8309H79.5582V93.2727Z" fill="black"/>
<path d="M83.0128 93.2727H79.4546V96.8309H83.0128V93.2727Z" fill="black"/>
<path d="M89.9218 93.2727H86.3636V96.8309H89.9218V93.2727Z" fill="black"/>
<path d="M96.8309 93.2727H93.2728V96.8309H96.8309V93.2727Z" fill="black"/>
<path d="M100.285 93.2727H96.7273V96.8309H100.285V93.2727Z" fill="black"/>
<path d="M38.1037 96.7273H34.5455V100.285H38.1037V96.7273Z" fill="black"/>
<path d="M41.5582 96.7273H38.0001V100.285H41.5582V96.7273Z" fill="black"/>
<path d="M51.9218 96.7273H48.3636V100.285H51.9218V96.7273Z" fill="black"/>
<path d="M58.8309 96.7273H55.2728V100.285H58.8309V96.7273Z" fill="black"/>
<path d="M65.74 96.7273H62.1818V100.285H65.74V96.7273Z" fill="black"/>
<path d="M72.6491 96.7273H69.0909V100.285H72.6491V96.7273Z" fill="black"/>
<path d="M76.1037 96.7273H72.5455V100.285H76.1037V96.7273Z" fill="black"/>
<path d="M79.5582 96.7273H76.0001V100.285H79.5582V96.7273Z" fill="black"/>
<path d="M83.0128 96.7273H79.4546V100.285H83.0128V96.7273Z" fill="black"/>
<path d="M86.4673 96.7273H82.9091V100.285H86.4673V96.7273Z" fill="black"/>
<path d="M89.9218 96.7273H86.3636V100.285H89.9218V96.7273Z" fill="black"/>
<path d="M93.3764 96.7273H89.8182V100.285H93.3764V96.7273Z" fill="black"/>
<path d="M96.8309 96.7273H93.2728V100.285H96.8309V96.7273Z" fill="black"/>
<path d="M100.285 96.7273H96.7273V100.285H100.285V96.7273Z" fill="black"/>
<path d="M103.74 96.7273H100.182V100.285H103.74V96.7273Z" fill="black"/>
<path d="M45.0128 100.182H41.4546V103.74H45.0128V100.182Z" fill="black"/>
<path d="M55.3764 100.182H51.8182V103.74H55.3764V100.182Z" fill="black"/>
<path d="M58.8309 100.182H55.2728V103.74H58.8309V100.182Z" fill="black"/>
<path d="M62.2855 100.182H58.7273V103.74H62.2855V100.182Z" fill="black"/>
<path d="M65.74 100.182H62.1818V103.74H65.74V100.182Z" fill="black"/>
<path d="M76.1037 100.182H72.5455V103.74H76.1037V100.182Z" fill="black"/>
<path d="M79.5582 100.182H76.0001V103.74H79.5582V100.182Z" fill="black"/>
<path d="M93.3764 100.182H89.8182V103.74H93.3764V100.182Z" fill="black"/>
<path d="M96.8309 100.182H93.2728V103.74H96.8309V100.182Z" fill="black"/>
<path d="M103.74 100.182H100.182V103.74H103.74V100.182Z" fill="black"/>
<path d="M45.0128 103.636H41.4546V107.195H45.0128V103.636Z" fill="black"/>
<path d="M62.2855 103.636H58.7273V107.195H62.2855V103.636Z" fill="black"/>
<path d="M65.74 103.636H62.1818V107.195H65.74V103.636Z" fill="black"/>
<path d="M69.1946 103.636H65.6364V107.195H69.1946V103.636Z" fill="black"/>
<path d="M76.1037 103.636H72.5455V107.195H76.1037V103.636Z" fill="black"/>
<path d="M93.3764 103.636H89.8182V107.195H93.3764V103.636Z" fill="black"/>
<path d="M6.90912 6.90909V31.0909H31.0909V6.90909H6.90912ZM27.6364 27.6364H10.3637V10.3636H27.6364V27.6364Z" fill="black"/>
<path d="M82.9091 6.90909V31.0909H107.091V6.90909H82.9091ZM103.636 27.6364H86.3637V10.3636H103.636V27.6364Z" fill="black"/>
<path d="M6.90912 82.9091V107.091H31.0909V82.9091H6.90912ZM27.6364 103.636H10.3637V86.3636H27.6364V103.636Z" fill="black"/>
<path d="M24.1819 13.8182H13.8182V24.1818H24.1819V13.8182Z" fill="black"/>
<path d="M100.182 13.8182H89.8182V24.1818H100.182V13.8182Z" fill="black"/>
<path d="M24.1819 89.8182H13.8182V100.182H24.1819V89.8182Z" fill="black"/>
</g>
<defs>
<clipPath id="clip0_1328_26766">
<rect width="114" height="114" fill="white"/>
</clipPath>
</defs>
</svg>
