<svg width="141" height="141" viewBox="0 0 141 141" fill="none" xmlns="http://www.w3.org/2000/svg">
<g clip-path="url(#clip0_1329_30756)">
<path d="M141.5 0H-0.5V141H141.5V0Z" fill="white"/>
<path d="M46.9624 8.54545H42.5303V12.9464H46.9624V8.54545Z" fill="black"/>
<path d="M72.7805 8.54545H68.3484V12.9464H72.7805V8.54545Z" fill="black"/>
<path d="M81.3865 8.54545H76.9543V12.9464H81.3865V8.54545Z" fill="black"/>
<path d="M85.6897 8.54545H81.2576V12.9464H85.6897V8.54545Z" fill="black"/>
<path d="M89.9927 8.54545H85.5605V12.9464H89.9927V8.54545Z" fill="black"/>
<path d="M98.5986 8.54545H94.1665V12.9464H98.5986V8.54545Z" fill="black"/>
<path d="M46.9624 12.8182H42.5303V17.2191H46.9624V12.8182Z" fill="black"/>
<path d="M51.2654 12.8182H46.8333V17.2191H51.2654V12.8182Z" fill="black"/>
<path d="M55.5684 12.8182H51.1362V17.2191H55.5684V12.8182Z" fill="black"/>
<path d="M72.7805 12.8182H68.3484V17.2191H72.7805V12.8182Z" fill="black"/>
<path d="M81.3865 12.8182H76.9543V17.2191H81.3865V12.8182Z" fill="black"/>
<path d="M85.6897 12.8182H81.2576V17.2191H85.6897V12.8182Z" fill="black"/>
<path d="M94.2956 12.8182H89.8635V17.2191H94.2956V12.8182Z" fill="black"/>
<path d="M46.9624 17.0909H42.5303V21.4918H46.9624V17.0909Z" fill="black"/>
<path d="M59.8713 17.0909H55.4392V21.4918H59.8713V17.0909Z" fill="black"/>
<path d="M81.3865 17.0909H76.9543V21.4918H81.3865V17.0909Z" fill="black"/>
<path d="M89.9927 17.0909H85.5605V21.4918H89.9927V17.0909Z" fill="black"/>
<path d="M94.2956 17.0909H89.8635V21.4918H94.2956V17.0909Z" fill="black"/>
<path d="M98.5986 17.0909H94.1665V21.4918H98.5986V17.0909Z" fill="black"/>
<path d="M55.5684 21.3636H51.1362V25.7645H55.5684V21.3636Z" fill="black"/>
<path d="M59.8713 21.3636H55.4392V25.7645H59.8713V21.3636Z" fill="black"/>
<path d="M68.4775 21.3636H64.0454V25.7645H68.4775V21.3636Z" fill="black"/>
<path d="M72.7805 21.3636H68.3484V25.7645H72.7805V21.3636Z" fill="black"/>
<path d="M77.0835 21.3636H72.6514V25.7645H77.0835V21.3636Z" fill="black"/>
<path d="M81.3865 21.3636H76.9543V25.7645H81.3865V21.3636Z" fill="black"/>
<path d="M85.6897 21.3636H81.2576V25.7645H85.6897V21.3636Z" fill="black"/>
<path d="M94.2956 21.3636H89.8635V25.7645H94.2956V21.3636Z" fill="black"/>
<path d="M55.5684 25.6364H51.1362V30.0373H55.5684V25.6364Z" fill="black"/>
<path d="M59.8713 25.6364H55.4392V30.0373H59.8713V25.6364Z" fill="black"/>
<path d="M64.1746 25.6364H59.7424V30.0373H64.1746V25.6364Z" fill="black"/>
<path d="M81.3865 25.6364H76.9543V30.0373H81.3865V25.6364Z" fill="black"/>
<path d="M89.9927 25.6364H85.5605V30.0373H89.9927V25.6364Z" fill="black"/>
<path d="M94.2956 25.6364H89.8635V30.0373H94.2956V25.6364Z" fill="black"/>
<path d="M46.9624 29.9091H42.5303V34.31H46.9624V29.9091Z" fill="black"/>
<path d="M51.2654 29.9091H46.8333V34.31H51.2654V29.9091Z" fill="black"/>
<path d="M64.1746 29.9091H59.7424V34.31H64.1746V29.9091Z" fill="black"/>
<path d="M72.7805 29.9091H68.3484V34.31H72.7805V29.9091Z" fill="black"/>
<path d="M77.0835 29.9091H72.6514V34.31H77.0835V29.9091Z" fill="black"/>
<path d="M81.3865 29.9091H76.9543V34.31H81.3865V29.9091Z" fill="black"/>
<path d="M89.9927 29.9091H85.5605V34.31H89.9927V29.9091Z" fill="black"/>
<path d="M46.9624 34.1818H42.5303V38.5827H46.9624V34.1818Z" fill="black"/>
<path d="M55.5684 34.1818H51.1362V38.5827H55.5684V34.1818Z" fill="black"/>
<path d="M64.1746 34.1818H59.7424V38.5827H64.1746V34.1818Z" fill="black"/>
<path d="M72.7805 34.1818H68.3484V38.5827H72.7805V34.1818Z" fill="black"/>
<path d="M81.3865 34.1818H76.9543V38.5827H81.3865V34.1818Z" fill="black"/>
<path d="M89.9927 34.1818H85.5605V38.5827H89.9927V34.1818Z" fill="black"/>
<path d="M98.5986 34.1818H94.1665V38.5827H98.5986V34.1818Z" fill="black"/>
<path d="M46.9624 38.4546H42.5303V42.8555H46.9624V38.4546Z" fill="black"/>
<path d="M51.2654 38.4546H46.8333V42.8555H51.2654V38.4546Z" fill="black"/>
<path d="M55.5684 38.4546H51.1362V42.8555H55.5684V38.4546Z" fill="black"/>
<path d="M59.8713 38.4546H55.4392V42.8555H59.8713V38.4546Z" fill="black"/>
<path d="M64.1746 38.4546H59.7424V42.8555H64.1746V38.4546Z" fill="black"/>
<path d="M68.4775 38.4546H64.0454V42.8555H68.4775V38.4546Z" fill="black"/>
<path d="M72.7805 38.4546H68.3484V42.8555H72.7805V38.4546Z" fill="black"/>
<path d="M77.0835 38.4546H72.6514V42.8555H77.0835V38.4546Z" fill="black"/>
<path d="M81.3865 38.4546H76.9543V42.8555H81.3865V38.4546Z" fill="black"/>
<path d="M94.2956 38.4546H89.8635V42.8555H94.2956V38.4546Z" fill="black"/>
<path d="M21.144 42.7273H16.7119V47.1282H21.144V42.7273Z" fill="black"/>
<path d="M25.4473 42.7273H21.0151V47.1282H25.4473V42.7273Z" fill="black"/>
<path d="M29.7502 42.7273H25.3181V47.1282H29.7502V42.7273Z" fill="black"/>
<path d="M38.3562 42.7273H33.9241V47.1282H38.3562V42.7273Z" fill="black"/>
<path d="M46.9624 42.7273H42.5303V47.1282H46.9624V42.7273Z" fill="black"/>
<path d="M51.2654 42.7273H46.8333V47.1282H51.2654V42.7273Z" fill="black"/>
<path d="M55.5684 42.7273H51.1362V47.1282H55.5684V42.7273Z" fill="black"/>
<path d="M72.7805 42.7273H68.3484V47.1282H72.7805V42.7273Z" fill="black"/>
<path d="M77.0835 42.7273H72.6514V47.1282H77.0835V42.7273Z" fill="black"/>
<path d="M81.3865 42.7273H76.9543V47.1282H81.3865V42.7273Z" fill="black"/>
<path d="M89.9927 42.7273H85.5605V47.1282H89.9927V42.7273Z" fill="black"/>
<path d="M102.902 42.7273H98.4697V47.1282H102.902V42.7273Z" fill="black"/>
<path d="M107.205 42.7273H102.773V47.1282H107.205V42.7273Z" fill="black"/>
<path d="M111.508 42.7273H107.076V47.1282H111.508V42.7273Z" fill="black"/>
<path d="M124.417 42.7273H119.985V47.1282H124.417V42.7273Z" fill="black"/>
<path d="M128.72 42.7273H124.288V47.1282H128.72V42.7273Z" fill="black"/>
<path d="M133.023 42.7273H128.591V47.1282H133.023V42.7273Z" fill="black"/>
<path d="M16.8411 47H12.4089V51.4009H16.8411V47Z" fill="black"/>
<path d="M25.4473 47H21.0151V51.4009H25.4473V47Z" fill="black"/>
<path d="M42.6594 47H38.2273V51.4009H42.6594V47Z" fill="black"/>
<path d="M51.2654 47H46.8333V51.4009H51.2654V47Z" fill="black"/>
<path d="M55.5684 47H51.1362V51.4009H55.5684V47Z" fill="black"/>
<path d="M59.8713 47H55.4392V51.4009H59.8713V47Z" fill="black"/>
<path d="M77.0835 47H72.6514V51.4009H77.0835V47Z" fill="black"/>
<path d="M81.3865 47H76.9543V51.4009H81.3865V47Z" fill="black"/>
<path d="M85.6897 47H81.2576V51.4009H85.6897V47Z" fill="black"/>
<path d="M102.902 47H98.4697V51.4009H102.902V47Z" fill="black"/>
<path d="M111.508 47H107.076V51.4009H111.508V47Z" fill="black"/>
<path d="M115.811 47H111.379V51.4009H115.811V47Z" fill="black"/>
<path d="M120.114 47H115.682V51.4009H120.114V47Z" fill="black"/>
<path d="M124.417 47H119.985V51.4009H124.417V47Z" fill="black"/>
<path d="M133.023 47H128.591V51.4009H133.023V47Z" fill="black"/>
<path d="M16.8411 51.2727H12.4089V55.6736H16.8411V51.2727Z" fill="black"/>
<path d="M25.4473 51.2727H21.0151V55.6736H25.4473V51.2727Z" fill="black"/>
<path d="M29.7502 51.2727H25.3181V55.6736H29.7502V51.2727Z" fill="black"/>
<path d="M34.0532 51.2727H29.6211V55.6736H34.0532V51.2727Z" fill="black"/>
<path d="M38.3562 51.2727H33.9241V55.6736H38.3562V51.2727Z" fill="black"/>
<path d="M42.6594 51.2727H38.2273V55.6736H42.6594V51.2727Z" fill="black"/>
<path d="M46.9624 51.2727H42.5303V55.6736H46.9624V51.2727Z" fill="black"/>
<path d="M55.5684 51.2727H51.1362V55.6736H55.5684V51.2727Z" fill="black"/>
<path d="M59.8713 51.2727H55.4392V55.6736H59.8713V51.2727Z" fill="black"/>
<path d="M64.1746 51.2727H59.7424V55.6736H64.1746V51.2727Z" fill="black"/>
<path d="M68.4775 51.2727H64.0454V55.6736H68.4775V51.2727Z" fill="black"/>
<path d="M72.7805 51.2727H68.3484V55.6736H72.7805V51.2727Z" fill="black"/>
<path d="M102.902 51.2727H98.4697V55.6736H102.902V51.2727Z" fill="black"/>
<path d="M107.205 51.2727H102.773V55.6736H107.205V51.2727Z" fill="black"/>
<path d="M115.811 51.2727H111.379V55.6736H115.811V51.2727Z" fill="black"/>
<path d="M124.417 51.2727H119.985V55.6736H124.417V51.2727Z" fill="black"/>
<path d="M25.4473 55.5455H21.0151V59.9464H25.4473V55.5455Z" fill="black"/>
<path d="M42.6594 55.5455H38.2273V59.9464H42.6594V55.5455Z" fill="black"/>
<path d="M46.9624 55.5455H42.5303V59.9464H46.9624V55.5455Z" fill="black"/>
<path d="M51.2654 55.5455H46.8333V59.9464H51.2654V55.5455Z" fill="black"/>
<path d="M55.5684 55.5455H51.1362V59.9464H55.5684V55.5455Z" fill="black"/>
<path d="M59.8713 55.5455H55.4392V59.9464H59.8713V55.5455Z" fill="black"/>
<path d="M77.0835 55.5455H72.6514V59.9464H77.0835V55.5455Z" fill="black"/>
<path d="M85.6897 55.5455H81.2576V59.9464H85.6897V55.5455Z" fill="black"/>
<path d="M98.5986 55.5455H94.1665V59.9464H98.5986V55.5455Z" fill="black"/>
<path d="M102.902 55.5455H98.4697V59.9464H102.902V55.5455Z" fill="black"/>
<path d="M107.205 55.5455H102.773V59.9464H107.205V55.5455Z" fill="black"/>
<path d="M120.114 55.5455H115.682V59.9464H120.114V55.5455Z" fill="black"/>
<path d="M128.72 55.5455H124.288V59.9464H128.72V55.5455Z" fill="black"/>
<path d="M16.8411 59.8182H12.4089V64.2191H16.8411V59.8182Z" fill="black"/>
<path d="M21.144 59.8182H16.7119V64.2191H21.144V59.8182Z" fill="black"/>
<path d="M25.4473 59.8182H21.0151V64.2191H25.4473V59.8182Z" fill="black"/>
<path d="M29.7502 59.8182H25.3181V64.2191H29.7502V59.8182Z" fill="black"/>
<path d="M34.0532 59.8182H29.6211V64.2191H34.0532V59.8182Z" fill="black"/>
<path d="M38.3562 59.8182H33.9241V64.2191H38.3562V59.8182Z" fill="black"/>
<path d="M42.6594 59.8182H38.2273V64.2191H42.6594V59.8182Z" fill="black"/>
<path d="M46.9624 59.8182H42.5303V64.2191H46.9624V59.8182Z" fill="black"/>
<path d="M68.4775 59.8182H64.0454V64.2191H68.4775V59.8182Z" fill="black"/>
<path d="M72.7805 59.8182H68.3484V64.2191H72.7805V59.8182Z" fill="black"/>
<path d="M81.3865 59.8182H76.9543V64.2191H81.3865V59.8182Z" fill="black"/>
<path d="M94.2956 59.8182H89.8635V64.2191H94.2956V59.8182Z" fill="black"/>
<path d="M98.5986 59.8182H94.1665V64.2191H98.5986V59.8182Z" fill="black"/>
<path d="M102.902 59.8182H98.4697V64.2191H102.902V59.8182Z" fill="black"/>
<path d="M111.508 59.8182H107.076V64.2191H111.508V59.8182Z" fill="black"/>
<path d="M124.417 59.8182H119.985V64.2191H124.417V59.8182Z" fill="black"/>
<path d="M128.72 59.8182H124.288V64.2191H128.72V59.8182Z" fill="black"/>
<path d="M133.023 59.8182H128.591V64.2191H133.023V59.8182Z" fill="black"/>
<path d="M12.5381 64.0909H8.10596V68.4918H12.5381V64.0909Z" fill="black"/>
<path d="M21.144 64.0909H16.7119V68.4918H21.144V64.0909Z" fill="black"/>
<path d="M25.4473 64.0909H21.0151V68.4918H25.4473V64.0909Z" fill="black"/>
<path d="M34.0532 64.0909H29.6211V68.4918H34.0532V64.0909Z" fill="black"/>
<path d="M42.6594 64.0909H38.2273V68.4918H42.6594V64.0909Z" fill="black"/>
<path d="M51.2654 64.0909H46.8333V68.4918H51.2654V64.0909Z" fill="black"/>
<path d="M55.5684 64.0909H51.1362V68.4918H55.5684V64.0909Z" fill="black"/>
<path d="M64.1746 64.0909H59.7424V68.4918H64.1746V64.0909Z" fill="black"/>
<path d="M68.4775 64.0909H64.0454V68.4918H68.4775V64.0909Z" fill="black"/>
<path d="M77.0835 64.0909H72.6514V68.4918H77.0835V64.0909Z" fill="black"/>
<path d="M85.6897 64.0909H81.2576V68.4918H85.6897V64.0909Z" fill="black"/>
<path d="M89.9927 64.0909H85.5605V68.4918H89.9927V64.0909Z" fill="black"/>
<path d="M94.2956 64.0909H89.8635V68.4918H94.2956V64.0909Z" fill="black"/>
<path d="M98.5986 64.0909H94.1665V68.4918H98.5986V64.0909Z" fill="black"/>
<path d="M102.902 64.0909H98.4697V68.4918H102.902V64.0909Z" fill="black"/>
<path d="M107.205 64.0909H102.773V68.4918H107.205V64.0909Z" fill="black"/>
<path d="M115.811 64.0909H111.379V68.4918H115.811V64.0909Z" fill="black"/>
<path d="M120.114 64.0909H115.682V68.4918H120.114V64.0909Z" fill="black"/>
<path d="M128.72 64.0909H124.288V68.4918H128.72V64.0909Z" fill="black"/>
<path d="M133.023 64.0909H128.591V68.4918H133.023V64.0909Z" fill="black"/>
<path d="M16.8411 68.3636H12.4089V72.7646H16.8411V68.3636Z" fill="black"/>
<path d="M29.7502 68.3636H25.3181V72.7646H29.7502V68.3636Z" fill="black"/>
<path d="M34.0532 68.3636H29.6211V72.7646H34.0532V68.3636Z" fill="black"/>
<path d="M38.3562 68.3636H33.9241V72.7646H38.3562V68.3636Z" fill="black"/>
<path d="M46.9624 68.3636H42.5303V72.7646H46.9624V68.3636Z" fill="black"/>
<path d="M51.2654 68.3636H46.8333V72.7646H51.2654V68.3636Z" fill="black"/>
<path d="M64.1746 68.3636H59.7424V72.7646H64.1746V68.3636Z" fill="black"/>
<path d="M85.6897 68.3636H81.2576V72.7646H85.6897V68.3636Z" fill="black"/>
<path d="M98.5986 68.3636H94.1665V72.7646H98.5986V68.3636Z" fill="black"/>
<path d="M111.508 68.3636H107.076V72.7646H111.508V68.3636Z" fill="black"/>
<path d="M21.144 72.6364H16.7119V77.0373H21.144V72.6364Z" fill="black"/>
<path d="M29.7502 72.6364H25.3181V77.0373H29.7502V72.6364Z" fill="black"/>
<path d="M34.0532 72.6364H29.6211V77.0373H34.0532V72.6364Z" fill="black"/>
<path d="M42.6594 72.6364H38.2273V77.0373H42.6594V72.6364Z" fill="black"/>
<path d="M46.9624 72.6364H42.5303V77.0373H46.9624V72.6364Z" fill="black"/>
<path d="M51.2654 72.6364H46.8333V77.0373H51.2654V72.6364Z" fill="black"/>
<path d="M64.1746 72.6364H59.7424V77.0373H64.1746V72.6364Z" fill="black"/>
<path d="M68.4775 72.6364H64.0454V77.0373H68.4775V72.6364Z" fill="black"/>
<path d="M77.0835 72.6364H72.6514V77.0373H77.0835V72.6364Z" fill="black"/>
<path d="M85.6897 72.6364H81.2576V77.0373H85.6897V72.6364Z" fill="black"/>
<path d="M89.9927 72.6364H85.5605V77.0373H89.9927V72.6364Z" fill="black"/>
<path d="M115.811 72.6364H111.379V77.0373H115.811V72.6364Z" fill="black"/>
<path d="M120.114 72.6364H115.682V77.0373H120.114V72.6364Z" fill="black"/>
<path d="M12.5381 76.9091H8.10596V81.31H12.5381V76.9091Z" fill="black"/>
<path d="M16.8411 76.9091H12.4089V81.31H16.8411V76.9091Z" fill="black"/>
<path d="M21.144 76.9091H16.7119V81.31H21.144V76.9091Z" fill="black"/>
<path d="M34.0532 76.9091H29.6211V81.31H34.0532V76.9091Z" fill="black"/>
<path d="M38.3562 76.9091H33.9241V81.31H38.3562V76.9091Z" fill="black"/>
<path d="M42.6594 76.9091H38.2273V81.31H42.6594V76.9091Z" fill="black"/>
<path d="M46.9624 76.9091H42.5303V81.31H46.9624V76.9091Z" fill="black"/>
<path d="M51.2654 76.9091H46.8333V81.31H51.2654V76.9091Z" fill="black"/>
<path d="M55.5684 76.9091H51.1362V81.31H55.5684V76.9091Z" fill="black"/>
<path d="M59.8713 76.9091H55.4392V81.31H59.8713V76.9091Z" fill="black"/>
<path d="M64.1746 76.9091H59.7424V81.31H64.1746V76.9091Z" fill="black"/>
<path d="M72.7805 76.9091H68.3484V81.31H72.7805V76.9091Z" fill="black"/>
<path d="M85.6897 76.9091H81.2576V81.31H85.6897V76.9091Z" fill="black"/>
<path d="M89.9927 76.9091H85.5605V81.31H89.9927V76.9091Z" fill="black"/>
<path d="M111.508 76.9091H107.076V81.31H111.508V76.9091Z" fill="black"/>
<path d="M115.811 76.9091H111.379V81.31H115.811V76.9091Z" fill="black"/>
<path d="M120.114 76.9091H115.682V81.31H120.114V76.9091Z" fill="black"/>
<path d="M124.417 76.9091H119.985V81.31H124.417V76.9091Z" fill="black"/>
<path d="M128.72 76.9091H124.288V81.31H128.72V76.9091Z" fill="black"/>
<path d="M133.023 76.9091H128.591V81.31H133.023V76.9091Z" fill="black"/>
<path d="M12.5381 81.1818H8.10596V85.5827H12.5381V81.1818Z" fill="black"/>
<path d="M16.8411 81.1818H12.4089V85.5827H16.8411V81.1818Z" fill="black"/>
<path d="M21.144 81.1818H16.7119V85.5827H21.144V81.1818Z" fill="black"/>
<path d="M29.7502 81.1818H25.3181V85.5827H29.7502V81.1818Z" fill="black"/>
<path d="M34.0532 81.1818H29.6211V85.5827H34.0532V81.1818Z" fill="black"/>
<path d="M42.6594 81.1818H38.2273V85.5827H42.6594V81.1818Z" fill="black"/>
<path d="M46.9624 81.1818H42.5303V85.5827H46.9624V81.1818Z" fill="black"/>
<path d="M55.5684 81.1818H51.1362V85.5827H55.5684V81.1818Z" fill="black"/>
<path d="M77.0835 81.1818H72.6514V85.5827H77.0835V81.1818Z" fill="black"/>
<path d="M89.9927 81.1818H85.5605V85.5827H89.9927V81.1818Z" fill="black"/>
<path d="M94.2956 81.1818H89.8635V85.5827H94.2956V81.1818Z" fill="black"/>
<path d="M98.5986 81.1818H94.1665V85.5827H98.5986V81.1818Z" fill="black"/>
<path d="M102.902 81.1818H98.4697V85.5827H102.902V81.1818Z" fill="black"/>
<path d="M107.205 81.1818H102.773V85.5827H107.205V81.1818Z" fill="black"/>
<path d="M111.508 81.1818H107.076V85.5827H111.508V81.1818Z" fill="black"/>
<path d="M115.811 81.1818H111.379V85.5827H115.811V81.1818Z" fill="black"/>
<path d="M124.417 81.1818H119.985V85.5827H124.417V81.1818Z" fill="black"/>
<path d="M128.72 81.1818H124.288V85.5827H128.72V81.1818Z" fill="black"/>
<path d="M133.023 81.1818H128.591V85.5827H133.023V81.1818Z" fill="black"/>
<path d="M12.5381 85.4546H8.10596V89.8555H12.5381V85.4546Z" fill="black"/>
<path d="M25.4473 85.4546H21.0151V89.8555H25.4473V85.4546Z" fill="black"/>
<path d="M29.7502 85.4546H25.3181V89.8555H29.7502V85.4546Z" fill="black"/>
<path d="M34.0532 85.4546H29.6211V89.8555H34.0532V85.4546Z" fill="black"/>
<path d="M38.3562 85.4546H33.9241V89.8555H38.3562V85.4546Z" fill="black"/>
<path d="M46.9624 85.4546H42.5303V89.8555H46.9624V85.4546Z" fill="black"/>
<path d="M51.2654 85.4546H46.8333V89.8555H51.2654V85.4546Z" fill="black"/>
<path d="M68.4775 85.4546H64.0454V89.8555H68.4775V85.4546Z" fill="black"/>
<path d="M77.0835 85.4546H72.6514V89.8555H77.0835V85.4546Z" fill="black"/>
<path d="M89.9927 85.4546H85.5605V89.8555H89.9927V85.4546Z" fill="black"/>
<path d="M107.205 85.4546H102.773V89.8555H107.205V85.4546Z" fill="black"/>
<path d="M120.114 85.4546H115.682V89.8555H120.114V85.4546Z" fill="black"/>
<path d="M124.417 85.4546H119.985V89.8555H124.417V85.4546Z" fill="black"/>
<path d="M12.5381 89.7272H8.10596V94.1282H12.5381V89.7272Z" fill="black"/>
<path d="M25.4473 89.7272H21.0151V94.1282H25.4473V89.7272Z" fill="black"/>
<path d="M29.7502 89.7272H25.3181V94.1282H29.7502V89.7272Z" fill="black"/>
<path d="M55.5684 89.7272H51.1362V94.1282H55.5684V89.7272Z" fill="black"/>
<path d="M68.4775 89.7272H64.0454V94.1282H68.4775V89.7272Z" fill="black"/>
<path d="M72.7805 89.7272H68.3484V94.1282H72.7805V89.7272Z" fill="black"/>
<path d="M81.3865 89.7272H76.9543V94.1282H81.3865V89.7272Z" fill="black"/>
<path d="M94.2956 89.7272H89.8635V94.1282H94.2956V89.7272Z" fill="black"/>
<path d="M98.5986 89.7272H94.1665V94.1282H98.5986V89.7272Z" fill="black"/>
<path d="M107.205 89.7272H102.773V94.1282H107.205V89.7272Z" fill="black"/>
<path d="M111.508 89.7272H107.076V94.1282H111.508V89.7272Z" fill="black"/>
<path d="M128.72 89.7272H124.288V94.1282H128.72V89.7272Z" fill="black"/>
<path d="M133.023 89.7272H128.591V94.1282H133.023V89.7272Z" fill="black"/>
<path d="M12.5381 94H8.10596V98.4009H12.5381V94Z" fill="black"/>
<path d="M21.144 94H16.7119V98.4009H21.144V94Z" fill="black"/>
<path d="M25.4473 94H21.0151V98.4009H25.4473V94Z" fill="black"/>
<path d="M34.0532 94H29.6211V98.4009H34.0532V94Z" fill="black"/>
<path d="M38.3562 94H33.9241V98.4009H38.3562V94Z" fill="black"/>
<path d="M46.9624 94H42.5303V98.4009H46.9624V94Z" fill="black"/>
<path d="M64.1746 94H59.7424V98.4009H64.1746V94Z" fill="black"/>
<path d="M72.7805 94H68.3484V98.4009H72.7805V94Z" fill="black"/>
<path d="M81.3865 94H76.9543V98.4009H81.3865V94Z" fill="black"/>
<path d="M98.5986 94H94.1665V98.4009H98.5986V94Z" fill="black"/>
<path d="M102.902 94H98.4697V98.4009H102.902V94Z" fill="black"/>
<path d="M107.205 94H102.773V98.4009H107.205V94Z" fill="black"/>
<path d="M111.508 94H107.076V98.4009H111.508V94Z" fill="black"/>
<path d="M115.811 94H111.379V98.4009H115.811V94Z" fill="black"/>
<path d="M124.417 94H119.985V98.4009H124.417V94Z" fill="black"/>
<path d="M46.9624 98.2727H42.5303V102.674H46.9624V98.2727Z" fill="black"/>
<path d="M55.5684 98.2727H51.1362V102.674H55.5684V98.2727Z" fill="black"/>
<path d="M59.8713 98.2727H55.4392V102.674H59.8713V98.2727Z" fill="black"/>
<path d="M64.1746 98.2727H59.7424V102.674H64.1746V98.2727Z" fill="black"/>
<path d="M68.4775 98.2727H64.0454V102.674H68.4775V98.2727Z" fill="black"/>
<path d="M72.7805 98.2727H68.3484V102.674H72.7805V98.2727Z" fill="black"/>
<path d="M77.0835 98.2727H72.6514V102.674H77.0835V98.2727Z" fill="black"/>
<path d="M89.9927 98.2727H85.5605V102.674H89.9927V98.2727Z" fill="black"/>
<path d="M94.2956 98.2727H89.8635V102.674H94.2956V98.2727Z" fill="black"/>
<path d="M98.5986 98.2727H94.1665V102.674H98.5986V98.2727Z" fill="black"/>
<path d="M115.811 98.2727H111.379V102.674H115.811V98.2727Z" fill="black"/>
<path d="M120.114 98.2727H115.682V102.674H120.114V98.2727Z" fill="black"/>
<path d="M128.72 98.2727H124.288V102.674H128.72V98.2727Z" fill="black"/>
<path d="M133.023 98.2727H128.591V102.674H133.023V98.2727Z" fill="black"/>
<path d="M59.8713 102.546H55.4392V106.946H59.8713V102.546Z" fill="black"/>
<path d="M68.4775 102.546H64.0454V106.946H68.4775V102.546Z" fill="black"/>
<path d="M72.7805 102.546H68.3484V106.946H72.7805V102.546Z" fill="black"/>
<path d="M77.0835 102.546H72.6514V106.946H77.0835V102.546Z" fill="black"/>
<path d="M89.9927 102.546H85.5605V106.946H89.9927V102.546Z" fill="black"/>
<path d="M94.2956 102.546H89.8635V106.946H94.2956V102.546Z" fill="black"/>
<path d="M98.5986 102.546H94.1665V106.946H98.5986V102.546Z" fill="black"/>
<path d="M107.205 102.546H102.773V106.946H107.205V102.546Z" fill="black"/>
<path d="M115.811 102.546H111.379V106.946H115.811V102.546Z" fill="black"/>
<path d="M55.5684 106.818H51.1362V111.219H55.5684V106.818Z" fill="black"/>
<path d="M72.7805 106.818H68.3484V111.219H72.7805V106.818Z" fill="black"/>
<path d="M77.0835 106.818H72.6514V111.219H77.0835V106.818Z" fill="black"/>
<path d="M94.2956 106.818H89.8635V111.219H94.2956V106.818Z" fill="black"/>
<path d="M98.5986 106.818H94.1665V111.219H98.5986V106.818Z" fill="black"/>
<path d="M115.811 106.818H111.379V111.219H115.811V106.818Z" fill="black"/>
<path d="M120.114 106.818H115.682V111.219H120.114V106.818Z" fill="black"/>
<path d="M128.72 106.818H124.288V111.219H128.72V106.818Z" fill="black"/>
<path d="M46.9624 111.091H42.5303V115.492H46.9624V111.091Z" fill="black"/>
<path d="M64.1746 111.091H59.7424V115.492H64.1746V111.091Z" fill="black"/>
<path d="M68.4775 111.091H64.0454V115.492H68.4775V111.091Z" fill="black"/>
<path d="M72.7805 111.091H68.3484V115.492H72.7805V111.091Z" fill="black"/>
<path d="M77.0835 111.091H72.6514V115.492H77.0835V111.091Z" fill="black"/>
<path d="M85.6897 111.091H81.2576V115.492H85.6897V111.091Z" fill="black"/>
<path d="M89.9927 111.091H85.5605V115.492H89.9927V111.091Z" fill="black"/>
<path d="M98.5986 111.091H94.1665V115.492H98.5986V111.091Z" fill="black"/>
<path d="M102.902 111.091H98.4697V115.492H102.902V111.091Z" fill="black"/>
<path d="M107.205 111.091H102.773V115.492H107.205V111.091Z" fill="black"/>
<path d="M111.508 111.091H107.076V115.492H111.508V111.091Z" fill="black"/>
<path d="M115.811 111.091H111.379V115.492H115.811V111.091Z" fill="black"/>
<path d="M120.114 111.091H115.682V115.492H120.114V111.091Z" fill="black"/>
<path d="M124.417 111.091H119.985V115.492H124.417V111.091Z" fill="black"/>
<path d="M133.023 111.091H128.591V115.492H133.023V111.091Z" fill="black"/>
<path d="M46.9624 115.364H42.5303V119.765H46.9624V115.364Z" fill="black"/>
<path d="M51.2654 115.364H46.8333V119.765H51.2654V115.364Z" fill="black"/>
<path d="M55.5684 115.364H51.1362V119.765H55.5684V115.364Z" fill="black"/>
<path d="M59.8713 115.364H55.4392V119.765H59.8713V115.364Z" fill="black"/>
<path d="M72.7805 115.364H68.3484V119.765H72.7805V115.364Z" fill="black"/>
<path d="M81.3865 115.364H76.9543V119.765H81.3865V115.364Z" fill="black"/>
<path d="M94.2956 115.364H89.8635V119.765H94.2956V115.364Z" fill="black"/>
<path d="M98.5986 115.364H94.1665V119.765H98.5986V115.364Z" fill="black"/>
<path d="M102.902 115.364H98.4697V119.765H102.902V115.364Z" fill="black"/>
<path d="M111.508 115.364H107.076V119.765H111.508V115.364Z" fill="black"/>
<path d="M120.114 115.364H115.682V119.765H120.114V115.364Z" fill="black"/>
<path d="M124.417 115.364H119.985V119.765H124.417V115.364Z" fill="black"/>
<path d="M46.9624 119.636H42.5303V124.037H46.9624V119.636Z" fill="black"/>
<path d="M51.2654 119.636H46.8333V124.037H51.2654V119.636Z" fill="black"/>
<path d="M64.1746 119.636H59.7424V124.037H64.1746V119.636Z" fill="black"/>
<path d="M72.7805 119.636H68.3484V124.037H72.7805V119.636Z" fill="black"/>
<path d="M81.3865 119.636H76.9543V124.037H81.3865V119.636Z" fill="black"/>
<path d="M89.9927 119.636H85.5605V124.037H89.9927V119.636Z" fill="black"/>
<path d="M94.2956 119.636H89.8635V124.037H94.2956V119.636Z" fill="black"/>
<path d="M98.5986 119.636H94.1665V124.037H98.5986V119.636Z" fill="black"/>
<path d="M102.902 119.636H98.4697V124.037H102.902V119.636Z" fill="black"/>
<path d="M107.205 119.636H102.773V124.037H107.205V119.636Z" fill="black"/>
<path d="M111.508 119.636H107.076V124.037H111.508V119.636Z" fill="black"/>
<path d="M115.811 119.636H111.379V124.037H115.811V119.636Z" fill="black"/>
<path d="M120.114 119.636H115.682V124.037H120.114V119.636Z" fill="black"/>
<path d="M124.417 119.636H119.985V124.037H124.417V119.636Z" fill="black"/>
<path d="M128.72 119.636H124.288V124.037H128.72V119.636Z" fill="black"/>
<path d="M55.5684 123.909H51.1362V128.31H55.5684V123.909Z" fill="black"/>
<path d="M68.4775 123.909H64.0454V128.31H68.4775V123.909Z" fill="black"/>
<path d="M72.7805 123.909H68.3484V128.31H72.7805V123.909Z" fill="black"/>
<path d="M77.0835 123.909H72.6514V128.31H77.0835V123.909Z" fill="black"/>
<path d="M81.3865 123.909H76.9543V128.31H81.3865V123.909Z" fill="black"/>
<path d="M94.2956 123.909H89.8635V128.31H94.2956V123.909Z" fill="black"/>
<path d="M98.5986 123.909H94.1665V128.31H98.5986V123.909Z" fill="black"/>
<path d="M115.811 123.909H111.379V128.31H115.811V123.909Z" fill="black"/>
<path d="M120.114 123.909H115.682V128.31H120.114V123.909Z" fill="black"/>
<path d="M128.72 123.909H124.288V128.31H128.72V123.909Z" fill="black"/>
<path d="M55.5684 128.182H51.1362V132.583H55.5684V128.182Z" fill="black"/>
<path d="M77.0835 128.182H72.6514V132.583H77.0835V128.182Z" fill="black"/>
<path d="M81.3865 128.182H76.9543V132.583H81.3865V128.182Z" fill="black"/>
<path d="M85.6897 128.182H81.2576V132.583H85.6897V128.182Z" fill="black"/>
<path d="M94.2956 128.182H89.8635V132.583H94.2956V128.182Z" fill="black"/>
<path d="M115.811 128.182H111.379V132.583H115.811V128.182Z" fill="black"/>
<path d="M8.10596 8.54546V38.4545H38.2272V8.54546H8.10596ZM33.9241 34.1818H12.409V12.8182H33.9241V34.1818Z" fill="black"/>
<path d="M102.773 8.54545V38.4545H132.894V8.54545H102.773ZM128.591 34.1818H107.076V12.8182H128.591V34.1818Z" fill="black"/>
<path d="M8.10596 102.546V132.455H38.2272V102.546H8.10596ZM33.9241 128.182H12.409V106.818H33.9241V128.182Z" fill="black"/>
<path d="M29.621 17.0909H16.7119V29.9091H29.621V17.0909Z" fill="black"/>
<path d="M124.288 17.0909H111.379V29.9091H124.288V17.0909Z" fill="black"/>
<path d="M29.621 111.091H16.7119V123.909H29.621V111.091Z" fill="black"/>
</g>
<defs>
<clipPath id="clip0_1329_30756">
<rect width="142" height="141" fill="white" transform="translate(-0.5)"/>
</clipPath>
</defs>
</svg>
